<svg xmlns="http://www.w3.org/2000/svg" viewBox="0 0 64 64"><path fill="#faefde" d="M41.742,25.142l-11.16-5.044c0,0-1.881-1.098-3.582-1.098h-8c-2.392,0-3.976,0.444-5.269,2.456 L6.318,33c-0.597,0.929-0.328,2.166,0.601,2.764c0.334,0.215,0.709,0.317,1.08,0.317c0.658,0,1.302-0.324,1.685-0.919L17,24l1,0.333 V34l5,4l5-4v-9.667L29,24l11.257,4.856C40.5,28.953,40.751,29,40.999,29c0.793,0,1.544-0.477,1.857-1.258 C43.267,26.716,42.768,25.553,41.742,25.142z"/><path fill="#f9e3ae" d="M42.5,18.472c2-2,2.5-3.472,2.5-5.472c0-3-3-6-3-6c0,2-1,4-4,4c-4,0-9-7-15-7c-7.417,0-8,8-8,10 c0,3.417,1.237,5,1.237,5L16,19l0.971,0.177C17.581,19.053,18.247,19,19,19h8c1.701,0,3.582,1.098,3.582,1.098l5.751,2.599L38,23 c5,0,7.754-2.924,9-5L42.5,18.472z"/><path fill="#f6d397" d="M42.5,18.472C32,18,29,4,23,4c-7.417,0-8,8-8,10c0,3.417,1.237,5,1.237,5L16,19l0.971,0.177 C17.581,19.053,18.247,19,19,19h8c1.701,0,3.582,1.098,3.582,1.098l5.751,2.599L38,23c5,0,7.754-2.924,9-5L42.5,18.472z"/><path fill="#ed7899" d="M28 29c0 0-3 0-5-3 0 0 2-2 6-2C29.296 26.238 28.717 27.145 28 29zM18 29c0 0 3 0 5-3 0 0-2-2-6-2C16.904 26.21 17.186 26.665 18 29z"/><path fill="#72caaf" d="M48,41l-0.003-0.001C47.96,34.941,44.994,30.116,44,31.11c-1,1-2,3-2,5 c0,1.035,0.072,1.861,0.176,2.56l0.795,4.84c0,0-2.087,7.133-7.779,7.311C33.856,50.864,30.909,51.493,30,50 c-1.005-1.651,1.573-7.259,1-9.583C29.884,35.889,28,33,28,33l-5,5l-5-5c0,0-3,4-3,9c0,8,3,18,15,18c10,0,15-11,16-13s5,0,7,0 s4-1,5-2S54.125,41,48,41z"/><path fill="#97e0bb" d="M48 41l-.003-.001C47.96 34.941 44.994 30.116 44 31.11c-1 1-2 3-2 5 0 1.035.072 1.861.176 2.56l.795 4.84c0 0-2.087 7.133-7.779 7.312-.14.004-.306.018-.477.032C34.303 51.595 34 52 34 52c3.692-.41 9.147-2.33 11.883-4.763C45.926 47.148 45.966 47.068 46 47c.174-.349.444-.57.775-.707C46.85 46.195 46.934 46.099 47 46c.097.054.189.1.284.151C48.928 45.9 51.515 47 53 47c2 0 4-1 5-2S54.125 41 48 41zM27 44c0 10 4 9 4 9s0-.902 0-2.239c-.422-.151-.774-.39-1-.761-.793-1.303.639-5.063 1-7.735 0-.449 0-.879 0-1.265 0-.235-.012-.47-.032-.704C29.849 35.839 28 33 28 33l-3.63 3.63C25.169 38.037 27 41.526 27 44z"/><path fill="#faefde" d="M19,10c2-1,3-3,3-3s2,2,5,3c0,2.761-1.239,6-4,6S19,12.761,19,10z"/><path fill="#8d6c9f" d="M48.146 50.438c-.287.472-.138 1.087.333 1.374l1.708 1.041c.472.287 1.087.138 1.374-.333.287-.472.138-1.087-.333-1.374l-1.708-1.041C49.049 49.818 48.434 49.967 48.146 50.438zM45.84 54.336c-.344.432-.274 1.061.158 1.405l1.563 1.247c.432.344 1.061.274 1.405-.158s.274-1.061-.158-1.405l-1.563-1.247C46.814 53.833 46.184 53.904 45.84 54.336z"/><path fill="none" stroke="#8d6c9f" stroke-linecap="round" stroke-miterlimit="10" stroke-width="2" d="M18,29v4c0,0-3,4-3,9 c0,8,3,18,15,18c10,0,15-11,16-13s5,0,7,0s4-1,5-2s-3.875-4-10-4"/><path fill="none" stroke="#8d6c9f" stroke-linecap="round" stroke-miterlimit="10" stroke-width="2" d="M48,41c0-6.11-3-10.89-4-9.89 s-2,3-2,5C42,40,43,41,43,43c0,3.058-3,8-10,8c-2,0-3-0.25-3-2"/><path fill="none" stroke="#8d6c9f" stroke-linecap="round" stroke-miterlimit="10" stroke-width="2" d="M28 29v4c0 0 3 4 3 9 0 3-1 5.25-1 7 0 0 0 3 1 4M28 33c0 0-3 3-5 5-2-2-5-5-5-5"/><path fill="none" stroke="#8d6c9f" stroke-linecap="round" stroke-linejoin="round" stroke-miterlimit="10" stroke-width="2" d="M42.5,18.472c2-2,2.5-3.472,2.5-5.472c0-3-3-6-3-6c0,2-1,4-4,4c-4,0-9-7-15-7c-7.417,0-8,8-8,10c0,3.417,1.237,5,1.237,5"/><path fill="none" stroke="#8d6c9f" stroke-miterlimit="10" stroke-width="2" d="M17,24L9.683,35.162 c-0.382,0.595-1.027,0.919-1.685,0.919c-0.37,0-0.745-0.103-1.08-0.317C5.99,35.166,5.721,33.929,6.318,33l7.413-11.544 C15.024,19.444,16.608,19,19,19h8c1.701,0,3.582,1.098,3.582,1.098l11.16,5.044c1.026,0.411,1.524,1.574,1.114,2.601 C42.543,28.523,41.792,29,40.999,29c-0.248,0-0.499-0.047-0.742-0.144L29,24"/><path fill="none" stroke="#8d6c9f" stroke-linecap="round" stroke-linejoin="round" stroke-miterlimit="10" stroke-width="2" d="M28 29c0 0-3 0-5-3 0 0 2-2 6-2C29.296 26.238 28.717 27.145 28 29zM18 29c0 0 3 0 5-3 0 0-2-2-6-2C16.904 26.21 17.186 26.665 18 29zM19 10c2-1 3-3 3-3s2 2 5 3c0 2.761-1.239 7-4 7S19 12.761 19 10zM38.956 18.099c1.303.587 2.78.973 4.357.901 1.178-.054 2.934-.247 3.688-1M34 14.456c.354.38.916.943 1.646 1.545M37.004 23C43 23 45.754 20.076 47 18"/><path fill="none" stroke="#8d6c9f" stroke-linecap="round" stroke-miterlimit="10" stroke-width="2" d="M19.999 48.203C20.442 49.689 22 53 24 54M19 41c0 0 0 1.276.191 3"/><path fill="#8d6c9f" d="M43.075 57.699c-.424.354-.48.985-.125 1.409l1.283 1.534c.354.424.985.48 1.409.125.424-.354.48-.985.125-1.409l-1.283-1.534C44.129 57.401 43.499 57.345 43.075 57.699zM11.94 49.63c-.15-.531-.703-.84-1.235-.69l-1.924.545c-.531.15-.84.703-.69 1.235.15.531.703.84 1.235.69l1.924-.545C11.781 50.714 12.09 50.161 11.94 49.63zM13.439 54.071c-.247-.494-.847-.695-1.341-.448l-1.789.893c-.494.247-.695.847-.448 1.341.247.494.847.695 1.341.448l1.789-.893C13.485 55.165 13.686 54.565 13.439 54.071zM11.137 45.406c-.027-.552-.496-.977-1.048-.95l-1.998.098c-.552.027-.977.496-.95 1.048s.496.977 1.048.95l1.998-.098C10.739 46.427 11.164 45.958 11.137 45.406zM10.988 41.151c.083-.546-.292-1.056-.838-1.14l-1.977-.302c-.546-.083-1.056.292-1.14.838-.083.546.292 1.056.838 1.14l1.977.302C10.395 42.072 10.905 41.697 10.988 41.151z"/></svg>