<svg xmlns="http://www.w3.org/2000/svg" viewBox="0 0 64 64"><path fill="#f9dd8f" d="M33.409,25.955L6.636,52.295c0,0-1.409,0.347-3.018,1.874C2.117,55.595,1,62,1,62 s6.517-1.095,7.963-2.574c1.549-1.585,1.901-2.971,1.901-2.971l26.773-26.341L33.409,25.955z"/><path fill="#8d6c9f" d="M1,63c-0.264,0-0.52-0.104-0.709-0.295c-0.229-0.23-0.332-0.557-0.276-0.877 c0.196-1.124,1.258-6.81,2.915-8.383c1.375-1.305,2.623-1.842,3.179-2.033l26.6-26.17c0.389-0.383,1.014-0.383,1.402,0l4.228,4.159 c0.191,0.188,0.299,0.445,0.299,0.713s-0.107,0.525-0.299,0.713L11.74,56.994c-0.196,0.553-0.743,1.781-2.062,3.13 c-1.593,1.63-7.37,2.67-8.512,2.862C1.11,62.996,1.055,63,1,63z M33.409,27.357L7.338,53.008c-0.128,0.126-0.288,0.215-0.462,0.258 c-0.004,0.001-1.199,0.328-2.569,1.628c-0.718,0.682-1.532,3.475-2.042,5.849c2.425-0.501,5.288-1.307,5.983-2.018 c1.313-1.344,1.646-2.515,1.648-2.526c0.046-0.17,0.14-0.334,0.266-0.458l26.049-25.628L33.409,27.357z M6.637,52.295h0.01H6.637z"/><path fill="#8d6c9f" d="M34.721,42.4c-0.259,0-0.518-0.1-0.713-0.299l-1.402-1.426 c-0.388-0.394-0.382-1.027,0.012-1.414c0.393-0.387,1.027-0.383,1.414,0.012l1.402,1.426c0.388,0.394,0.382,1.027-0.012,1.414 C35.228,42.304,34.974,42.4,34.721,42.4z"/><path fill="#8d6c9f" d="M31.104,45.958c-0.259,0-0.518-0.1-0.713-0.299l-1.402-1.426 c-0.388-0.394-0.382-1.027,0.012-1.414c0.393-0.388,1.027-0.382,1.414,0.012l1.402,1.426c0.388,0.394,0.382,1.027-0.012,1.414 C31.611,45.862,31.357,45.958,31.104,45.958z"/><path fill="#8d6c9f" d="M27.488,49.515c-0.259,0-0.518-0.1-0.713-0.299l-1.402-1.426 c-0.388-0.394-0.382-1.027,0.012-1.414c0.393-0.388,1.027-0.383,1.414,0.012l1.402,1.426c0.388,0.394,0.382,1.027-0.012,1.414 C27.995,49.419,27.741,49.515,27.488,49.515z"/><path fill="#8d6c9f" d="M23.872,53.073c-0.259,0-0.518-0.1-0.713-0.299l-1.402-1.426 c-0.388-0.394-0.382-1.027,0.012-1.414c0.393-0.388,1.027-0.383,1.414,0.012l1.402,1.426c0.388,0.394,0.382,1.027-0.012,1.414 C24.379,52.977,24.125,53.073,23.872,53.073z"/><path fill="#8d6c9f" d="M20.256,56.63c-0.259,0-0.518-0.1-0.713-0.299l-1.402-1.426 c-0.388-0.394-0.382-1.027,0.012-1.414c0.393-0.387,1.027-0.383,1.414,0.012l1.402,1.426c0.388,0.394,0.382,1.027-0.012,1.414 C20.763,56.535,20.509,56.63,20.256,56.63z"/><path fill="#efc88e" d="M62.889,19.023c0,0-4.826,7.26-11.208,8.211L36.336,12.135c0.967-6.277,8.346-11.024,8.346-11.024 C43.979,1.039,43.29,1,42.568,1C31.524,1,22.514,9.633,22.136,20.409c2.477-1.736,5.183-2.773,8.455-2.773 c0.017,0,0.354,0,0.827,0.001l14.673,14.435c0,0.441,0,0.793,0,0.814c0,3.219-1.054,5.881-2.818,8.318 C54.226,40.833,63,31.969,63,21.102C63,20.395,62.961,19.71,62.889,19.023z"/><path fill="#8d6c9f" d="M43.272,42.205c-0.369,0-0.709-0.203-0.883-0.53c-0.18-0.337-0.151-0.747,0.073-1.056 c1.793-2.477,2.628-4.934,2.628-7.732v-0.395L31.008,18.637l-0.417-0.001c-2.854,0-5.357,0.824-7.88,2.592 c-0.312,0.219-0.72,0.241-1.051,0.06c-0.334-0.181-0.536-0.535-0.522-0.914C21.537,8.949,30.95,0,42.568,0 c0.73,0,1.455,0.038,2.216,0.116c0.422,0.043,0.771,0.349,0.869,0.762c0.1,0.413-0.073,0.843-0.43,1.074 c-0.068,0.043-6.62,4.328-7.809,9.843l14.6,14.365c5.628-1.159,9.997-7.624,10.042-7.691c0.232-0.35,0.656-0.517,1.071-0.417 c0.409,0.101,0.711,0.447,0.755,0.866C63.962,19.666,64,20.38,64,21.102c0,11.439-9.09,20.708-20.693,21.102 C43.295,42.205,43.283,42.205,43.272,42.205z M30.591,16.636l0.83,0.001c0.262,0.001,0.512,0.104,0.698,0.287L46.792,31.36 c0.191,0.188,0.299,0.445,0.299,0.713v0.813c0,2.536-0.619,4.894-1.887,7.157c9.333-1.232,16.446-8.86,16.783-18.244 c-2.037,2.337-5.705,5.76-10.159,6.424c-0.308,0.048-0.624-0.056-0.849-0.276L35.635,12.848c-0.229-0.226-0.336-0.547-0.287-0.865 c0.672-4.363,4.114-7.957,6.49-9.97c-9.535,0.341-17.283,7.328-18.536,16.495C25.606,17.251,28.008,16.636,30.591,16.636z"/><circle cx="42" cy="21" r="12" fill="#f9dd8f"/><path fill="#8d6c9f" d="M42,34c-7.168,0-13-5.832-13-13S34.832,8,42,8s13,5.832,13,13S49.168,34,42,34z M42,10 c-6.065,0-11,4.935-11,11s4.935,11,11,11s11-4.935,11-11S48.065,10,42,10z"/><g><path fill="#efc88e" d="M35.765,37c-0.479,0-0.958-0.18-1.323-0.539l-7.484-7.364c-0.732-0.72-0.732-1.883,0-2.603 c0.732-0.72,1.914-0.72,2.646,0l7.484,7.364c0.732,0.72,0.732,1.883,0,2.603C36.723,36.82,36.244,37,35.765,37z"/><path fill="#8d6c9f" d="M35.766,38c-0.764,0-1.482-0.293-2.024-0.827l-7.484-7.363c-0.547-0.538-0.848-1.253-0.848-2.014 c0-0.762,0.301-1.477,0.848-2.015c1.115-1.099,2.933-1.097,4.048,0l7.484,7.363c0.547,0.538,0.848,1.253,0.848,2.015 c0,0.761-0.301,1.477-0.848,2.014C37.249,37.706,36.53,38,35.766,38z M28.28,26.954c-0.225,0-0.449,0.084-0.621,0.253 c-0.161,0.159-0.25,0.368-0.25,0.589c0,0.221,0.089,0.43,0.25,0.588l7.484,7.363c0.332,0.325,0.914,0.325,1.242,0.001 c0.162-0.16,0.251-0.369,0.251-0.589c0-0.221-0.089-0.43-0.25-0.589l-7.484-7.363C28.73,27.039,28.506,26.954,28.28,26.954z"/></g><g><path fill="#cda1a7" d="M46.443,25.301c0,0-4.998,1.321-7.75-1.386c-2.752-2.708-1.409-7.625-1.409-7.625 s4.998-1.321,7.75,1.386S46.443,25.301,46.443,25.301z"/></g><g><path fill="#8d6c9f" d="M48.364,26.95c-0.256,0-0.512-0.098-0.707-0.292l-1.415-1.414c-0.262-0.262-0.357-0.647-0.249-1 c0.011-0.036,1.116-3.827-1.159-6.065c-2.303-2.267-6.044-1.181-6.082-1.169c-0.352,0.106-0.733,0.01-0.994-0.25l-1.415-1.414 c-0.391-0.391-0.391-1.024,0-1.415s1.023-0.39,1.414,0l1.021,1.02c1.401-0.283,4.941-0.675,7.459,1.803 c2.529,2.488,2.112,6.061,1.817,7.475l1.018,1.016c0.391,0.391,0.391,1.024,0,1.415C48.876,26.852,48.62,26.95,48.364,26.95z"/></g><g><path fill="#8d6c9f" d="M46.95,28.364c-0.256,0-0.512-0.098-0.707-0.292l-1.018-1.017c-1.41,0.293-4.984,0.712-7.474-1.818 c-2.479-2.518-2.086-6.058-1.803-7.459l-1.021-1.019c-0.391-0.391-0.391-1.024,0-1.415s1.023-0.39,1.414,0l1.415,1.414 c0.26,0.26,0.356,0.642,0.251,0.995c-0.011,0.035-1.081,3.796,1.169,6.083c2.239,2.276,6.028,1.171,6.067,1.159 c0.352-0.105,0.736-0.011,0.997,0.25l1.415,1.414c0.391,0.391,0.391,1.024,0,1.415C47.462,28.266,47.206,28.364,46.95,28.364z"/></g><g><path fill="#efc88e" d="M14.409,57.841c-0.47,0-0.94-0.177-1.298-0.529l-7.345-7.227c-0.718-0.706-0.718-1.848,0-2.555 c0.718-0.706,1.879-0.706,2.597,0l7.345,7.227c0.718,0.706,0.718,1.848,0,2.555C15.349,57.664,14.879,57.841,14.409,57.841z"/><path fill="#8d6c9f" d="M14.409,58.841c-0.756,0-1.466-0.29-2-0.817l-7.345-7.226c-0.54-0.531-0.837-1.238-0.837-1.99 s0.297-1.459,0.837-1.99c1.103-1.084,2.896-1.084,3.999,0l7.345,7.227c0.54,0.531,0.838,1.238,0.838,1.99s-0.298,1.459-0.838,1.991 C15.875,58.551,15.165,58.841,14.409,58.841z M7.063,48c-0.216,0-0.432,0.081-0.597,0.243c-0.154,0.152-0.239,0.353-0.239,0.564 s0.085,0.413,0.239,0.564l7.346,7.227c0.318,0.313,0.876,0.312,1.192,0.001c0.156-0.153,0.241-0.354,0.241-0.565 s-0.085-0.412-0.24-0.564l-7.345-7.228C7.496,48.081,7.28,48,7.063,48z"/></g><g><ellipse cx="42.051" cy="21.031" fill="#8d6c9f" rx="1.949" ry="1.969"/></g></svg>