<svg xmlns="http://www.w3.org/2000/svg" data-name="Layer 1" viewBox="0 0 64 64"><path fill="#85cbf8" d="M63.25,26.08l-1.87,2.7A140,140,0,0,1,38.62,54.21l-5.3,4.64a2,2,0,0,1-2.63,0l-5.11-4.46A140,140,0,0,1,2.82,29l-2.07-3a2,2,0,0,1-.06-2.2l.41-.65a48,48,0,0,1,9.47-11l.86-.74a2,2,0,0,1,1.3-.48H51.26a2,2,0,0,1,1.3.48l.86.74a48,48,0,0,1,9.47,11l.41.66A2,2,0,0,1,63.25,26.08Z"/><path fill="#ace3ff" d="M62.89,23.23a48,48,0,0,0-9.47-11l-.86-.74a2,2,0,0,0-1.3-.48H12.74a2,2,0,0,0-1.3.48l-.86.74a48,48,0,0,0-9.47,11l-.4.65A2,2,0,0,0,.4,25l1.73.54a100,100,0,0,0,60.34-.18L63.6,25a2,2,0,0,0-.3-1.12Z"/><path fill="#e0678f" d="M55.88,35.63c-2.31-9.61-16.1-10.58-25.25-11-10.08-.47-9.48-3-9.48-3s-.29-4,13.09-3.46c12.66.47,17.67,3.79,22.26,9.23a1,1,0,0,0,1.55,0l1.23-1.6a1,1,0,0,0,0-1.21c-1.35-1.79-5.22-7.25-5.85-11.88l-4-1.68.83,4.3a100.63,100.63,0,0,0-28-4C6.09,14.33,3.74,29,11,33.57c5.67,3.85,25.76,3.63,25.76,3.63,5.7-.24,13.33,2.06,5.76,6C38,45.67,24.29,46.58,10.13,38.88l7.41,7.54s13.74,5.52,25.86,3.1Z"/><path fill="#ed7899" d="M53.49 31.42c-.52-.61-1-1.2-1.58-1.75-5.34-4.12-14.56-4.73-21.29-5-5.3-.25-7.65-1.06-8.68-1.77-3.93 1-3.8 2.79-3.8 2.79s-.6 2.51 9.48 3c9 .42 22.44 1.37 25.11 10.5l3.14-3.5A10.19 10.19 0 0 0 54 31.72 1 1 0 0 1 53.49 31.42zM41.32 44.82c-3.2-1.85-17.15 1.69-31.19-5.95l7.41 7.54a42.71 42.71 0 0 0 6.84 2.1C31 49.32 44.1 46.44 41.32 44.82z"/><path fill="#8d6c9f" d="M12 8a1 1 0 0 0 1-1V5a1 1 0 0 0-2 0V7A1 1 0 0 0 12 8zM17 8a1 1 0 0 0 1-1V5a1 1 0 0 0-2 0V7A1 1 0 0 0 17 8zM22 8a1 1 0 0 0 1-1V5a1 1 0 0 0-2 0V7A1 1 0 0 0 22 8zM27 8a1 1 0 0 0 1-1V5a1 1 0 0 0-2 0V7A1 1 0 0 0 27 8zM32 8a1 1 0 0 0 1-1V5a1 1 0 0 0-2 0V7A1 1 0 0 0 32 8zM37 8a1 1 0 0 0 1-1V5a1 1 0 0 0-2 0V7A1 1 0 0 0 37 8zM42 8a1 1 0 0 0 1-1V5a1 1 0 0 0-2 0V7A1 1 0 0 0 42 8zM47 8a1 1 0 0 0 1-1V5a1 1 0 0 0-2 0V7A1 1 0 0 0 47 8zM52 8a1 1 0 0 0 1-1V5a1 1 0 0 0-2 0V7A1 1 0 0 0 52 8zM64.15 23.35l-.41-.66a48.94 48.94 0 0 0-9.66-11.23l-.86-.74a3 3 0 0 0-2-.72H12.74a3 3 0 0 0-2 .72l-.86.74A49 49 0 0 0 .26 22.7l-.41.65a3 3 0 0 0 .08 3.31l2.07 3A141.07 141.07 0 0 0 24.91 55.14L30 59.6a3 3 0 0 0 3.95 0L39.28 55A141.11 141.11 0 0 0 62.19 29.35l1.88-2.7A3 3 0 0 0 64.15 23.35zM38 53.46l-5.3 4.64a1 1 0 0 1-1.32 0l-5.11-4.46c-1.87-1.64-3.7-3.33-5.48-5.06a56.86 56.86 0 0 0 16 2.57 37.67 37.67 0 0 0 4-.22C39.85 51.78 38.91 52.63 38 53.46zm5.32-4.92h-.08c-11.67 2.33-25.15-3-25.29-3a1 1 0 0 0-.29-.05 139 139 0 0 1-14-17l-2.07-3a1 1 0 0 1 0-1.1L2 23.76A47 47 0 0 1 11.22 13l.86-.74a1 1 0 0 1 .65-.24h4C10.6 14.76 7.47 19.47 6.59 23.65c-.94 4.46.58 8.68 3.85 10.74 5.86 4 25.5 3.81 26.36 3.8 4.15-.17 7.65 1 7.88 1.88.07.27-.38 1.09-2.63 2.28-4.37 2.34-14.15 1.7-18.39.69A1 1 0 0 0 23.19 45a45.17 45.17 0 0 0 9.52 1c3.81 0 7.73-.47 10.28-1.83 1.05-.55 4.25-2.24 3.63-4.56-.73-2.73-6.31-3.5-9.86-3.36-.2 0-19.84.18-25.21-3.47-2.62-1.65-3.76-5-3-8.66C9.58 19.19 14.17 13.47 24 12H48.6l.55 2.84a38.33 38.33 0 0 0-6.33-1.36 1 1 0 0 0-.28 2A26.76 26.76 0 0 1 50 17.3a1 1 0 0 0 1.44-1.08L50.64 12h.62a1 1 0 0 1 .65.24l.53.45a.94.94 0 0 0 0 .12c.65 4.78 4.44 10.23 6 12.35l-1.22 1.61c-4.82-5.71-10.12-9.11-23-9.59-6.92-.25-11.37.61-13.25 2.56a2.82 2.82 0 0 0-.87 1.83 1.93 1.93 0 0 0 .43 1.35c1.15 1.53 4.52 2.44 10 2.69 7.7.36 22 1 24.3 10.16A139.21 139.21 0 0 1 43.28 48.54zm19.15-23l-1.87 2.7c-1.34 1.93-2.75 3.82-4.19 5.68-3.6-9.23-17.85-9.9-25.69-10.26C23.6 23.3 22.33 22 22.15 21.7v0s.63-2.89 12.05-2.46c12.19.45 17 3.47 21.53 8.88a1.94 1.94 0 0 0 1.57.7A2 2 0 0 0 58.84 28l1.23-1.6a2 2 0 0 0 0-2.42 36.53 36.53 0 0 1-5-8.87 46.93 46.93 0 0 1 7 8.67l.41.66A1 1 0 0 1 62.43 25.51z"/><path fill="#8d6c9f" d="M20 41.95c-1.15-.42-1.81-.74-1.82-.75A1 1 0 0 0 17.3 43a21.45 21.45 0 0 0 2 .84A1 1 0 0 0 20 41.95zM36.95 14.94q1.1.06 2.1.14h.08a1 1 0 0 0 .08-2q-1-.08-2.16-.15a1 1 0 1 0-.11 2z"/></svg>