<svg xmlns="http://www.w3.org/2000/svg" data-name="Layer 1" viewBox="0 0 64 64"><path fill="#f283a5" d="M31 9A22 22 0 1 0 31 53A22 22 0 1 0 31 9Z"/><path fill="#ed7899" d="M31,3A28,28,0,1,0,59,31,28,28,0,0,0,31,3Zm0,50A22,22,0,1,1,46.17,15.07l.68.67q.39.4.75.82A22,22,0,0,1,31,53Z"/><path fill="#e0678f" d="M31,53A22,22,0,0,1,9,31H7.34a4,4,0,0,0-3.95,4.71,28,28,0,0,0,55.21,0A4,4,0,0,0,54.66,31H53A22,22,0,0,1,31,53Z"/><path fill="#f9e3ae" d="M40.12 23L47.14 23.01 45.79 24.52 41.97 28.77 39.44 31.59 36.35 35.04 42.9 35.04 35.13 42.2 13.6 62.03 24.01 43 17.07 43 17.69 42.2 25.87 31.59 27.87 29 22.08 29 22.33 28.77 26.86 24.52 29.87 21.7 33.64 18.16 51 1.89 42.61 18.16 40.79 21.7 40.12 23z"/><path fill="#faefde" d="M48.42 5.58L51 1.89 33.64 18.16 29.87 21.7 26.86 24.52 22.33 28.77 22.08 29 27.87 29 48.42 5.58zM26.9 43H24L13.6 62l3.8-4.85L27.67 44.63A1 1 0 0 0 26.9 43zM30.84 29h-3l-2 2.59L17.69 42.2l-.62.8h7l-1.53-.61 9.09-11.78A1 1 0 0 0 30.84 29z"/><path fill="#8d6c9f" d="M37 51.09a1 1 0 0 0-1.93.51l.51 1.93A1 1 0 1 0 37.55 53zM41.65 48.93a1 1 0 1 0-1.74 1l1 1.74a1 1 0 1 0 1.74-1zM45.55 45.64A1 1 0 0 0 44.13 47l1.41 1.42A1 1 0 1 0 47 47.07zM31 51h0a1 1 0 0 0-1 1v2a1 1 0 0 0 1 1h0a1 1 0 0 0 1-1V52A1 1 0 0 0 31 51z"/><path fill="#8d6c9f" d="M59,23.65A28.72,28.72,0,0,0,48.88,8.17l3-5.83a1,1,0,0,0-1.57-1.18l-5,4.64A29,29,0,0,0,3,38.35a28.77,28.77,0,0,0,12.94,17.4l-3.17,5.8A1,1,0,0,0,13,62.82a1,1,0,0,0,.61.21,1,1,0,0,0,.68-.26l5.46-5A28.9,28.9,0,0,0,31,60a29.24,29.24,0,0,0,7.4-1A29,29,0,0,0,59,23.65ZM9.48,47.33A27,27,0,0,1,43.84,7.24l-22.44,21A1,1,0,0,0,22.08,30h3.75L16.28,42.39A1,1,0,0,0,17.07,44h5.25l-2.57,4.71a21,21,0,0,1,5.93-38A21.16,21.16,0,0,1,30.49,10a1,1,0,0,0,1-1,1,1,0,0,0-1-1,23.13,23.13,0,0,0-5.27.75,23,23,0,0,0-6.38,41.71L16.86,54A26.59,26.59,0,0,1,9.48,47.33Zm9.89,8-1.58,1.45-.39.36.24-.44,1-1.75,6.29-11.51a1,1,0,0,0,0-1A1,1,0,0,0,24,42H19.1l9.56-12.39a1,1,0,0,0,.1-1,1,1,0,0,0-.89-.56H24.61l21-19.69,1.5-1.41.34-.32L47.25,7l-.92,1.79-2.09,4L43.66,14l-4.43,8.59A1,1,0,0,0,40.12,24h4.79L35.6,34.38a1,1,0,0,0-.16,1.07,1,1,0,0,0,.91.59h4ZM54.31,44.63a27,27,0,0,1-32.93,11.6l22.2-20.45a1,1,0,0,0,.25-1.1A1,1,0,0,0,42.9,34H38.59l9.3-10.36a1,1,0,0,0,.17-1.08,1,1,0,0,0-.91-.59H41.76l3.37-6.53a21.07,21.07,0,0,1,4,26.11A1,1,0,0,0,49.5,43a1,1,0,0,0,.5.13,1,1,0,0,0,.87-.49,23.07,23.07,0,0,0-4.8-29L48,10a27,27,0,0,1,6.36,34.65Z"/><path fill="#8d6c9f" d="M34.62,10.31a21.14,21.14,0,0,1,2.19.51,1,1,0,1,0,.56-1.92A23.07,23.07,0,0,0,35,8.34a1,1,0,1,0-.35,2Z"/></svg>