<svg xmlns="http://www.w3.org/2000/svg" viewBox="0 0 64 64"><path fill="#85cbf8" d="M41.175,51.497c0.238,0.051,0.481,0.083,0.738,0.083c1.772,0,3.21-1.438,3.21-3.21	c0-3.383-1.984-7.261-3.768-9.463h-18.71c-1.785,2.202-3.768,6.08-3.768,9.463c0,1.772,1.438,3.21,3.21,3.21	c0.257,0,0.501-0.032,0.738-0.083H41.175z"/><ellipse cx="31.917" cy="46.332" fill="#e3f2ff" rx="6.67" ry="7.394"/><path fill="#85cbf8" d="M39.958,58c0.491,0,0.953-0.237,1.191-0.631c0.588-0.973,0.934-2.162,0.934-3.449	c0-3.293-2.257-5.962-5.042-5.962S32,50.628,32,53.921c0,1.287,0.347,2.475,0.934,3.449c0.238,0.395,0.7,0.631,1.191,0.631H39.958z"/><path fill="#85cbf8" d="M29.875,58c0.491,0,0.953-0.237,1.191-0.631C31.653,56.396,32,55.207,32,53.921	c0-3.293-2.257-5.962-5.042-5.962s-5.042,2.669-5.042,5.962c0,1.287,0.347,2.475,0.934,3.449C23.088,57.764,23.55,58,24.041,58	H29.875z"/><path fill="#85cbf8" d="M12.328,24.337C7.656,23.903,4,19.972,4,15.188C4,10.115,8.115,6,13.188,6	c4.331,0,7.967,2.999,8.932,7.042"/><path fill="#85cbf8" d="M41.88,13.042C42.845,8.999,46.481,6,50.812,6C55.885,6,60,10.115,60,15.188	c0,4.784-3.656,8.715-8.328,9.149"/><path fill="#e3f2ff" d="M13.474,21.254C10.95,20.926,9,18.763,9,16.15C9,13.304,11.304,11,14.15,11	c2.382,0,4.384,1.616,4.976,3.811"/><path fill="#e3f2ff" d="M44.875,14.811C45.467,12.616,47.469,11,49.85,11c2.845,0,5.15,2.304,5.15,5.15	c0,2.613-1.95,4.776-4.474,5.104"/><path fill="#85cbf8" d="M39.081,40c0.212-0.046,0.417-0.092,0.623-0.144c0.918-0.242,1.804-0.531,2.651-0.858 c5.726-2.221,9.546-6.394,9.546-11.963c0-1.114-0.154-2.221-0.443-3.315c-0.263-1.009-0.648-1.998-1.13-2.955 c-1.252-2.477-3.203-4.743-5.637-6.558c-0.873-0.649-1.817-1.245-2.812-1.762C38.972,10.917,35.595,10,32,10 s-6.972,0.917-9.88,2.444c-0.995,0.518-1.939,1.114-2.812,1.762c-2.433,1.815-4.385,4.082-5.637,6.558 c-0.481,0.957-0.867,1.946-1.13,2.955c-0.289,1.094-0.443,2.201-0.443,3.315c0,5.569,3.82,9.742,9.546,11.963 c0.847,0.328,1.733,0.616,2.651,0.858c0.205,0.052,0.411,0.098,0.623,0.144"/><path fill="#8d6c9f" d="M42.418,21.696c-0.256,0-0.512-0.098-0.707-0.293c-0.391-0.39-0.391-1.023,0-1.414l1.414-1.415 c0.391-0.391,1.024-0.391,1.415,0c0.391,0.39,0.391,1.023,0,1.414l-1.414,1.415C42.93,21.599,42.674,21.696,42.418,21.696z"/><path fill="#8d6c9f" d="M38.165,18.676c-0.147,0-0.296-0.032-0.438-0.102c-0.497-0.242-0.703-0.841-0.46-1.337 l0.877-1.797c0.242-0.496,0.84-0.706,1.337-0.46c0.497,0.242,0.703,0.841,0.46,1.337l-0.877,1.797 C38.891,18.47,38.535,18.676,38.165,18.676z"/><path fill="#8d6c9f" d="M33.163,17.178c-0.043,0-0.087-0.003-0.131-0.009c-0.547-0.071-0.933-0.573-0.862-1.121 l0.259-1.982c0.071-0.547,0.569-0.938,1.122-0.861c0.547,0.071,0.933,0.573,0.862,1.121l-0.259,1.982 C34.087,16.811,33.657,17.178,33.163,17.178z"/><path fill="#acb7d0" d="M35.917,28.388c0-2.494-1.753-5.418-3.917-5.418s-3.917,2.925-3.917,5.418S29.837,32,32,32 S35.917,30.881,35.917,28.388z"/><path fill="#8d6c9f" d="M32,33c-2.987,0-4.917-1.811-4.917-4.612c0-3.029,2.103-6.418,4.917-6.418s4.917,3.389,4.917,6.418 C36.917,31.189,34.987,33,32,33z M32,23.97c-1.417,0-2.917,2.271-2.917,4.418C29.083,30.66,30.911,31,32,31s2.917-0.34,2.917-2.612 C34.917,26.24,33.417,23.97,32,23.97z"/><g><path fill="#8d6c9f" d="M32,37.173c-1.478,0-2.862-0.671-3.015-0.747c-0.494-0.247-0.694-0.848-0.447-1.342 c0.248-0.493,0.846-0.696,1.341-0.447c0.042,0.021,1.114,0.536,2.122,0.536c1.023,0,2.112-0.532,2.123-0.537 c0.494-0.244,1.094-0.043,1.339,0.451c0.245,0.494,0.046,1.093-0.447,1.339C34.862,36.502,33.478,37.173,32,37.173z"/></g><g><path fill="#8d6c9f" d="M21.296,29.111c-0.489,0-0.917-0.359-0.988-0.858c-0.078-0.547,0.302-1.054,0.848-1.132 l3.404-0.486c0.551-0.075,1.053,0.302,1.131,0.849s-0.302,1.054-0.848,1.132l-3.404,0.486 C21.391,29.108,21.344,29.111,21.296,29.111z"/><path fill="#8d6c9f" d="M42.704,29.111c-0.047,0-0.095-0.003-0.143-0.01l-3.404-0.486 c-0.546-0.078-0.926-0.585-0.848-1.132c0.078-0.548,0.58-0.928,1.131-0.849l3.404,0.486c0.546,0.078,0.926,0.585,0.848,1.132 C43.621,28.752,43.193,29.111,42.704,29.111z"/></g><path fill="#8d6c9f" d="M61,15.188C61,9.57,56.43,5,50.812,5c-4.134,0-7.763,2.449-9.347,6.131	c-5.922-2.767-13.013-2.766-18.929,0C20.951,7.449,17.322,5,13.188,5C7.57,5,3,9.57,3,15.188c0,4.952,3.473,9.086,8.23,10.001	c-0.086,0.62-0.131,1.237-0.131,1.846c0,5.546,3.542,10.15,9.727,12.703c-1.589,2.432-2.949,5.694-2.949,8.633	c0,1.969,1.364,3.614,3.194,4.069c-0.091,0.479-0.154,0.971-0.154,1.482c0,1.424,0.373,2.795,1.078,3.965	C22.409,58.573,23.193,59,24.041,59h5.834c0.848,0,1.632-0.427,2.046-1.114c0.03-0.049,0.05-0.103,0.078-0.153	c0.028,0.05,0.049,0.104,0.078,0.153C32.493,58.573,33.277,59,34.124,59h5.834c0.848,0,1.632-0.427,2.047-1.114	c0.705-1.169,1.078-2.54,1.078-3.965c0-0.517-0.053-1.019-0.146-1.504c1.823-0.46,3.186-2.083,3.186-4.047	c0-2.937-1.362-6.197-2.95-8.631c6.185-2.554,9.728-7.157,9.728-12.705c0-0.609-0.045-1.226-0.131-1.846	C57.527,24.273,61,20.139,61,15.188z M11.649,23.233C7.808,22.512,5,19.181,5,15.188C5,10.673,8.673,7,13.188,7	c3.376,0,6.329,2.034,7.569,5.073c-0.468,0.273-0.926,0.564-1.375,0.873C18.283,11.159,16.325,10,14.149,10	C10.759,10,8,12.759,8,16.149c0,2.63,1.683,4.913,4.071,5.774C11.905,22.36,11.771,22.797,11.649,23.233z M10,16.149	C10,13.861,11.861,12,14.149,12c1.531,0,2.901,0.851,3.621,2.146c-2.058,1.716-3.724,3.755-4.876,5.956	C11.204,19.567,10,17.98,10,16.149z M19.876,48.37c0-2.668,1.397-5.771,2.885-7.923c0.424,0.135,0.853,0.263,1.287,0.378	c0.218,0.056,0.435,0.104,0.659,0.153l0-0.001c0.134,0.032,0.283,0.057,0.422,0.088c-0.781,1.163-1.21,2.567-1.21,4.046	c0,0.87,0.153,1.721,0.446,2.531c-1.131,0.623-2.057,1.646-2.668,2.899C20.664,50.356,19.876,49.456,19.876,48.37z M30.209,56.853	C30.167,56.924,30.043,57,29.875,57h-5.834c-0.168,0-0.292-0.076-0.334-0.147c-0.517-0.857-0.791-1.871-0.791-2.932	c0-2.736,1.813-4.963,4.042-4.963S31,51.185,31,53.921C31,54.982,30.727,55.996,30.209,56.853z M32,50.094	c-1.082-1.887-2.937-3.136-5.042-3.136c-0.236,0-0.468,0.02-0.697,0.05c-0.226-0.606-0.343-1.244-0.343-1.898	c0-1.311,0.447-2.534,1.259-3.444c0.058-0.065,0.089-0.143,0.127-0.218c0.074,0.01,0.142,0.024,0.217,0.033	c1.446,0.191,2.953,0.289,4.478,0.289c1.418,0,2.824-0.084,4.178-0.25c0.181-0.022,0.346-0.052,0.523-0.077	c0.039,0.085,0.076,0.172,0.141,0.247c0.799,0.917,1.24,2.132,1.24,3.42c0,0.654-0.113,1.29-0.336,1.89	c-0.001,0.003,0,0.006-0.001,0.009c-0.231-0.031-0.464-0.051-0.702-0.051C34.937,46.958,33.082,48.207,32,50.094z M40.292,56.853	C40.25,56.924,40.127,57,39.958,57h-5.834c-0.168,0-0.292-0.076-0.334-0.147C33.273,55.995,33,54.981,33,53.921	c0-2.736,1.813-4.963,4.042-4.963s4.042,2.227,4.042,4.963C41.083,54.981,40.81,55.995,40.292,56.853z M44.124,48.37	c0,1.08-0.78,1.978-1.805,2.169c-0.61-1.258-1.549-2.272-2.682-2.897c0.293-0.807,0.445-1.658,0.445-2.532	c0-1.471-0.43-2.877-1.214-4.046c0.14-0.03,0.287-0.054,0.425-0.087l0,0c0.005-0.001,0.009-0.002,0.014-0.003	c0.001,0,0.002,0,0.003-0.001v0c0.218-0.048,0.43-0.095,0.648-0.151c0.43-0.113,0.857-0.241,1.281-0.376	C42.727,42.6,44.124,45.702,44.124,48.37z M41.995,38.065c-0.822,0.317-1.679,0.595-2.54,0.821c-0.193,0.05-0.386,0.093-0.586,0.136	l-0.017,0.004c-0.912,0.215-1.866,0.381-2.917,0.51c-2.643,0.323-5.522,0.311-8.154-0.038c-0.95-0.122-1.835-0.281-2.63-0.471	l-0.021-0.005c-0.2-0.043-0.393-0.086-0.58-0.134c-0.867-0.229-1.724-0.506-2.544-0.823c-5.661-2.196-8.908-6.217-8.908-11.031	c0-0.999,0.138-2.029,0.41-3.063c0.239-0.912,0.594-1.84,1.055-2.756c1.181-2.336,3.028-4.482,5.34-6.207	c0.852-0.633,1.753-1.197,2.681-1.68c5.806-3.047,13.021-3.048,18.833,0.001c0.924,0.481,1.825,1.046,2.676,1.678	c2.314,1.726,4.161,3.872,5.341,6.207c0.462,0.917,0.817,1.845,1.056,2.759c0.272,1.031,0.41,2.062,0.41,3.061	C50.901,31.849,47.654,35.869,41.995,38.065z M46.23,14.146C46.95,12.851,48.32,12,49.851,12C52.139,12,54,13.861,54,16.149	c0,1.831-1.203,3.418-2.894,3.953C49.954,17.902,48.288,15.863,46.23,14.146z M52.351,23.233c-0.122-0.436-0.256-0.872-0.422-1.31	C54.317,21.063,56,18.779,56,16.149C56,12.759,53.241,10,49.851,10c-2.175,0-4.133,1.159-5.232,2.946	c-0.45-0.31-0.908-0.601-1.375-0.873C44.483,9.034,47.436,7,50.812,7C55.327,7,59,10.673,59,15.188	C59,19.181,56.192,22.512,52.351,23.233z"/></svg>