<svg xmlns="http://www.w3.org/2000/svg" viewBox="0 0 64 64"><path fill="#ced9ed" d="M47.873,52.411c0.269-0.893,0.425-1.818,0.425-2.772c0-2.885-1.31-5.533-3.487-7.638H19.189	c-2.177,2.105-3.487,4.753-3.487,7.638c0,0.955,0.156,1.88,0.425,2.772H47.873z"/><path fill="#acb7d0" d="M27.258,11.272C27.091,10.873,27,10.445,27,10c0-2.209,2.239-4,5-4s5,1.791,5,4	c0,0.388-0.069,0.763-0.198,1.118"/><path fill="#85cbf8" d="M48.8,23.919c0-0.554-0.037-1.089-0.118-1.624v-0.006c-0.081-0.653-0.23-1.294-0.423-1.916	C46.385,14.318,39.815,9.844,32,9.844s-14.386,4.474-16.259,10.528c-0.193,0.622-0.342,1.263-0.423,1.916	c-0.081,0.535-0.118,1.076-0.118,1.63c0,0.081,0.006,0.156,0.006,0.236H15.2c0,0.852,0.093,1.649,0.243,2.42	c0.124,0.641,0.292,1.269,0.485,1.892c0.846,2.745,2.136,5.466,2.341,9.532l-1.545,2.553C16.391,41.218,16.875,42,17.618,42h28.764	c0.743,0,1.227-0.782,0.894-1.447L45.73,38c0.205-4.067,1.495-6.787,2.341-9.532c0.193-0.622,0.361-1.251,0.485-1.892	c0.149-0.772,0.243-1.568,0.243-2.42h-0.006C48.793,24.075,48.8,24,48.8,23.919z"/><path fill="#ced9ed" d="M42.888,58.246C43.587,57.084,44,55.663,44,54.125C44,50.19,41.314,47,38,47s-6,3.19-6,7.125	c0,1.538,0.413,2.958,1.112,4.121"/><path fill="#ced9ed" d="M33.111,58.246C33.394,58.718,33.944,59,34.528,59h6.943c0.584,0,1.134-0.283,1.417-0.754"/><path fill="#ced9ed" d="M29.471,59c0.584,0,1.134-0.283,1.417-0.754C31.587,57.083,32,55.662,32,54.125	C32,50.19,29.314,47,26,47s-6,3.19-6,7.125c0,1.538,0.413,2.958,1.112,4.121C21.394,58.718,21.944,59,22.529,59H29.471z"/><path fill="#85cbf8" d="M23.158,11.317c0.138-1.065-0.072-2.267-0.677-3.397c-1.275-2.405-3.824-3.555-5.691-2.563	c-0.302,0.164-0.572,0.375-0.802,0.624c-1.17,1.262-1.327,3.516-0.263,5.526c0.066,0.118,0.131,0.237,0.204,0.348	c0.046,0.079,0.092,0.158,0.151,0.237c0.079,0.125,0.164,0.243,0.256,0.355c0.099,0.131,0.204,0.25,0.315,0.368	c0.079,0.092,0.164,0.177,0.25,0.25c0.053,0.059,0.112,0.112,0.171,0.158c0.02,0.02,0.039,0.039,0.059,0.053	c0.085,0.079,0.177,0.151,0.269,0.217c0.112,0.085,0.23,0.171,0.348,0.243c0.026,0.013,0.046,0.033,0.072,0.046	c0.256,0.158,0.526,0.283,0.795,0.388c0.007,0,0.013,0.007,0.02,0.007"/><path fill="#85cbf8" d="M40.842,11.317c-0.138-1.065,0.072-2.267,0.677-3.397c1.275-2.405,3.824-3.555,5.691-2.563	c0.302,0.164,0.572,0.375,0.802,0.624c1.17,1.262,1.327,3.516,0.263,5.526c-0.066,0.118-0.131,0.237-0.204,0.348	c-0.046,0.079-0.092,0.158-0.151,0.237c-0.079,0.125-0.164,0.243-0.256,0.355c-0.099,0.131-0.204,0.25-0.315,0.368	c-0.079,0.092-0.164,0.177-0.25,0.25c-0.053,0.059-0.112,0.112-0.171,0.158c-0.02,0.02-0.039,0.039-0.059,0.053	c-0.085,0.079-0.177,0.151-0.269,0.217c-0.112,0.085-0.23,0.171-0.348,0.243c-0.026,0.013-0.046,0.033-0.072,0.046	c-0.256,0.158-0.526,0.283-0.795,0.388c-0.007,0-0.013,0.007-0.02,0.007"/><path fill="#e2e9f7" d="M30.031,57.731l-0.18-0.108c-0.817-0.49-1.164-1.451-0.966-2.383C28.961,54.881,29,54.507,29,54.125 C29,51.889,27.626,50,26,50c-0.004,0-0.008,0-0.012,0c-0.795,0.004-1.556-0.31-1.967-0.992l-0.23-0.382 C24.471,48.217,25.235,48,26,48c2.757,0,5,2.748,5,6.125C31,55.429,30.665,56.676,30.031,57.731z"/><path fill="#e2e9f7" d="M42.034,57.731l-0.18-0.108c-0.817-0.49-1.164-1.451-0.966-2.383 c0.076-0.359,0.115-0.733,0.115-1.115c0-2.236-1.374-4.125-3-4.125c-0.004,0-0.008,0-0.012,0c-0.795,0.004-1.556-0.31-1.967-0.992 l-0.23-0.382C36.474,48.217,37.238,48,38.003,48c2.757,0,5,2.748,5,6.125C43.002,55.429,42.667,56.676,42.034,57.731z"/><path fill="#f283a5" d="M35.182,22c-1.697,0-2.97,1.111-3.182,1.778C31.788,23.111,30.515,22,28.818,22	c-1.697,0-3.818,1.333-3.818,4.444c0,3.778,4.879,6.889,7,7.556c2.121-0.667,7-3.778,7-7.556C39,23.333,36.879,22,35.182,22z"/><path fill="#8d6c9f" d="M32,35c-0.101,0-0.202-0.016-0.3-0.046c-2.601-0.818-7.7-4.26-7.7-8.51	C24,22.908,26.482,21,28.818,21c1.249,0,2.4,0.497,3.182,1.162C32.782,21.497,33.934,21,35.182,21C37.518,21,40,22.908,40,26.444	c0,4.25-5.099,7.691-7.701,8.51C32.202,34.984,32.101,35,32,35z M28.818,23C27.843,23,26,23.72,26,26.444	c0,2.855,3.796,5.665,6,6.497c2.204-0.832,6-3.642,6-6.497C38,23.72,36.156,23,35.182,23c-1.262,0-2.128,0.824-2.231,1.086	c-0.155,0.395-0.546,0.725-0.974,0.662c-0.423-0.014-0.802-0.264-0.93-0.668C30.946,23.824,30.079,23,28.818,23z"/><path fill="#8d6c9f" d="M29.843,29.854c-0.429,0-0.826-0.278-0.957-0.711l-0.631-2.088c-0.16-0.528,0.139-1.086,0.667-1.246	c0.527-0.161,1.087,0.139,1.247,0.668l0.631,2.088c0.16,0.528-0.139,1.086-0.667,1.246C30.036,29.841,29.939,29.854,29.843,29.854z"/><path fill="#8d6c9f" d="M34.081,29.854c-0.105,0-0.211-0.017-0.317-0.052c-0.524-0.175-0.807-0.741-0.632-1.265l0.697-2.088	c0.176-0.523,0.74-0.807,1.266-0.632c0.524,0.175,0.807,0.741,0.632,1.265l-0.697,2.088C34.889,29.59,34.499,29.854,34.081,29.854z"/><path fill="#fff8ee" d="M47.045,31.521C44.672,30.552,43,28.221,43,25.5c0-3.071,2.129-5.644,4.992-6.324"/><path fill="#fff8ee" d="M16.939,31.521c2.373-0.969,4.045-3.299,4.045-6.021c0-3.071-2.129-5.644-4.992-6.324"/><path fill="#8d6c9f" d="M38.856,18.59c-0.165,0-0.332-0.041-0.486-0.127c-0.482-0.269-0.655-0.878-0.386-1.36l0.975-1.746 c0.269-0.483,0.878-0.655,1.36-0.386c0.482,0.269,0.655,0.878,0.386,1.36l-0.975,1.746C39.547,18.405,39.207,18.59,38.856,18.59z"/><path fill="#8d6c9f" d="M34.379,17.047c-0.054,0-0.108-0.004-0.164-0.014c-0.545-0.09-0.914-0.604-0.824-1.149l0.325-1.973 c0.09-0.544,0.597-0.924,1.149-0.823c0.545,0.09,0.914,0.604,0.824,1.149l-0.325,1.973C35.284,16.699,34.86,17.047,34.379,17.047z"/><path fill="#8d6c9f" d="M29.619,17.047c-0.481,0-0.905-0.348-0.986-0.838l-0.325-1.973c-0.09-0.545,0.279-1.06,0.824-1.148 c0.548-0.101,1.06,0.279,1.149,0.824l0.325,1.973c0.09,0.545-0.279,1.06-0.824,1.148C29.728,17.043,29.673,17.047,29.619,17.047z"/><path fill="#8d6c9f" d="M25.143,18.59c-0.351,0-0.691-0.185-0.875-0.513l-0.974-1.747c-0.269-0.482-0.096-1.092,0.387-1.36 c0.483-0.268,1.092-0.096,1.36,0.386l0.974,1.747c0.269,0.482,0.096,1.092-0.387,1.36C25.475,18.549,25.307,18.59,25.143,18.59z"/><path fill="#8d6c9f" d="M49.676,22.183c0-0.005-0.001-0.011-0.002-0.017c-0.083-0.669-0.238-1.372-0.46-2.09	c-0.595-1.923-1.626-3.67-2.973-5.191c0.152-0.074,0.287-0.147,0.398-0.216c0.021-0.011,0.113-0.069,0.134-0.081	c0.146-0.09,0.293-0.194,0.41-0.284c0.124-0.089,0.247-0.187,0.362-0.293c0.007-0.006,0.015-0.013,0.021-0.019	c0.079-0.063,0.156-0.132,0.228-0.208c0.108-0.096,0.211-0.2,0.28-0.282c0.137-0.146,0.266-0.292,0.361-0.42	c0.119-0.145,0.229-0.297,0.281-0.387c0.082-0.108,0.148-0.217,0.193-0.295c0.085-0.131,0.162-0.27,0.249-0.426	c1.236-2.334,1.066-5.078-0.413-6.674c-0.307-0.332-0.664-0.608-1.066-0.827c-0.981-0.522-2.158-0.612-3.314-0.261	c-1.527,0.469-2.886,1.648-3.728,3.234c-0.498,0.932-0.776,1.946-0.824,2.939c-0.594-0.246-1.202-0.471-1.83-0.661	C37.811,7.097,35.198,5,32,5c-3.197,0-5.811,2.097-5.983,4.726c-0.628,0.19-1.235,0.414-1.83,0.661	c-0.047-0.993-0.326-2.007-0.822-2.936c-0.843-1.589-2.202-2.769-3.729-3.236c-1.157-0.356-2.334-0.263-3.323,0.264	c-0.396,0.215-0.753,0.492-1.058,0.823c-1.479,1.596-1.649,4.34-0.406,6.688c0.077,0.141,0.156,0.28,0.215,0.369	c0.066,0.114,0.135,0.228,0.169,0.267c0.101,0.16,0.21,0.313,0.304,0.425c0.121,0.161,0.25,0.307,0.353,0.414	c0.099,0.117,0.206,0.225,0.313,0.32c0.073,0.076,0.151,0.146,0.229,0.209c0.007,0.006,0.014,0.012,0.021,0.018	c0.115,0.106,0.238,0.204,0.34,0.277c0.118,0.09,0.242,0.18,0.405,0.28v0.001c0.021,0.015,0.078,0.052,0.099,0.065	c0.145,0.089,0.298,0.172,0.461,0.251c-1.347,1.521-2.378,3.269-2.973,5.192c-0.223,0.718-0.378,1.421-0.457,2.063	c-0.087,0.575-0.129,1.157-0.129,1.779l0.004,0.146c-0.002,0.03-0.004,0.06-0.004,0.09c0,0.851,0.085,1.704,0.261,2.611	c0.121,0.625,0.289,1.277,0.511,1.996c0.194,0.63,0.412,1.26,0.634,1.903c0.718,2.08,1.46,4.228,1.647,7.082l-1.424,2.357	c-0.312,0.625-0.279,1.353,0.087,1.946c0.273,0.441,0.694,0.748,1.178,0.878C16.108,44.636,15,47.112,15,49.667	c0,2.129,1.768,3.864,4.017,4.07C19.012,53.866,19,53.994,19,54.125c0,1.666,0.434,3.27,1.254,4.636	C20.713,59.525,21.584,60,22.529,60h6.942c0.943,0,1.815-0.475,2.275-1.239c0.096-0.16,0.169-0.334,0.254-0.5	c0.085,0.166,0.158,0.34,0.254,0.5l0,0C32.713,59.526,33.584,60,34.528,60h6.943c0.945,0,1.816-0.475,2.275-1.24l0,0	C44.566,57.395,45,55.792,45,54.125c0-0.131-0.012-0.259-0.017-0.388C47.231,53.531,49,51.796,49,49.667	c0-2.554-1.108-5.03-2.095-6.737c0.485-0.13,0.906-0.437,1.179-0.878c0.367-0.594,0.399-1.321,0.048-2.017l-1.385-2.287	c0.187-2.855,0.929-5.004,1.647-7.084c0.222-0.644,0.439-1.271,0.633-1.9c0.223-0.72,0.391-1.372,0.512-1.997	c0.175-0.907,0.261-1.761,0.261-2.611c0-0.029-0.001-0.059-0.004-0.087l0.004-0.149C49.8,23.317,49.759,22.749,49.676,22.183z M42.402,8.388c0.587-1.107,1.54-1.953,2.548-2.262c0.457-0.141,1.137-0.233,1.783,0.109c0.203,0.11,0.386,0.253,0.545,0.425	c0.896,0.967,0.943,2.809,0.121,4.362c-0.054,0.099-0.108,0.196-0.196,0.335c-0.025,0.044-0.049,0.088-0.13,0.202	c-0.056,0.089-0.117,0.173-0.208,0.286c-0.076,0.101-0.157,0.19-0.28,0.322c-0.042,0.049-0.087,0.095-0.132,0.133	c-0.037,0.031-0.107,0.096-0.139,0.132c-0.021,0.017-0.047,0.04-0.07,0.061c-0.019,0.016-0.037,0.031-0.055,0.048	c-0.055,0.051-0.115,0.097-0.195,0.155c-0.085,0.064-0.175,0.13-0.204,0.15c-0.021,0.011-0.114,0.069-0.135,0.082	c-0.171,0.105-0.368,0.202-0.6,0.295c-0.117,0.038-0.22,0.101-0.314,0.177c-0.886-0.768-1.862-1.458-2.919-2.05	c0.002-0.055,0.019-0.107,0.011-0.163C41.716,10.287,41.918,9.293,42.402,8.388z M32,7c1.839,0,3.377,0.941,3.842,2.211	C34.598,8.979,33.314,8.845,32,8.845c-1.314,0-2.598,0.134-3.841,0.366C28.623,7.941,30.161,7,32,7z M17.758,12.495	c-0.032-0.03-0.078-0.069-0.104-0.09c-0.033-0.037-0.068-0.072-0.106-0.104c-0.046-0.039-0.092-0.085-0.167-0.172	c-0.086-0.092-0.168-0.183-0.269-0.314c-0.066-0.081-0.127-0.165-0.235-0.329c-0.033-0.043-0.057-0.088-0.108-0.175	c-0.059-0.091-0.112-0.188-0.159-0.271c-0.831-1.57-0.784-3.412,0.114-4.38c0.157-0.171,0.34-0.313,0.536-0.42	c0.654-0.348,1.333-0.253,1.791-0.113c1.008,0.309,1.96,1.154,2.549,2.265c0.482,0.902,0.684,1.896,0.567,2.798	c-0.007,0.056,0.009,0.107,0.011,0.162c-1.057,0.592-2.033,1.281-2.919,2.05c-0.094-0.076-0.198-0.14-0.316-0.177	c-0.204-0.082-0.383-0.168-0.582-0.282c-0.025-0.018-0.071-0.048-0.089-0.06c-0.09-0.055-0.179-0.119-0.286-0.2	c-0.06-0.043-0.119-0.089-0.174-0.14C17.794,12.524,17.776,12.51,17.758,12.495z M32,10.845c6.346,0,11.973,3.121,14.458,7.803	C43.78,19.828,42,22.477,42,25.5c0,2.748,1.482,5.215,3.834,6.531c-0.524,1.69-0.985,3.597-1.102,5.918	c-0.01,0.2,0.04,0.397,0.143,0.568L46.382,41l-28.803,0.07l1.545-2.553c0.104-0.171,0.153-0.368,0.143-0.568	c-0.117-2.324-0.579-4.233-1.104-5.924c2.344-1.318,3.821-3.782,3.821-6.525c0-3.018-1.775-5.663-4.446-6.846	C20.022,13.969,25.651,10.845,32,10.845z M16.883,28.172c-0.011-0.036-0.018-0.067-0.029-0.102c0.709-0.655,1.131-1.581,1.131-2.57	c0-1.243-0.667-2.366-1.686-2.989c0.005-0.033,0.006-0.065,0.011-0.099c0.069-0.552,0.199-1.139,0.387-1.744	c0.018-0.058,0.043-0.113,0.062-0.171c1.939,0.876,3.226,2.803,3.226,5.003c0,1.876-0.946,3.57-2.467,4.576	c-0.007-0.021-0.014-0.042-0.022-0.063C17.281,29.391,17.071,28.782,16.883,28.172z M20,48.889c0,0.344,0.016,0.678,0.033,1.011	c-0.306,0.579-0.555,1.202-0.729,1.865C18.022,51.697,17,50.787,17,49.667c0-2.254,1.152-4.784,2.394-6.667h1.367	C20.257,44.887,20,46.86,20,48.889z M30.031,57.73C29.935,57.892,29.709,58,29.471,58h-6.942c-0.239,0-0.464-0.108-0.56-0.269	C21.335,56.676,21,55.429,21,54.125C21,50.748,23.243,48,26,48s5,2.748,5,6.125C31,55.429,30.665,56.676,30.031,57.73z M32,49.962	C30.775,47.593,28.548,46,26,46c-1.46,0-2.816,0.523-3.939,1.414c0.103-1.519,0.367-2.995,0.784-4.414h18.309	c0.412,1.413,0.665,2.884,0.766,4.397C40.8,46.516,39.451,46,38,46C35.452,46,33.224,47.593,32,49.962z M42.03,57.732	C41.935,57.893,41.709,58,41.471,58h-6.943c-0.238,0-0.463-0.107-0.559-0.268l0-0.001C33.334,56.676,33,55.429,33,54.125	C33,50.748,35.243,48,38,48c2.757,0,5,2.748,5,6.125C43,55.429,42.665,56.676,42.03,57.732L42.03,57.732z M47,49.667	c0,1.12-1.021,2.03-2.303,2.097c-0.174-0.665-0.425-1.29-0.733-1.872C43.981,49.56,44,49.228,44,48.889	c0-2.029-0.258-4.002-0.762-5.889h1.356C45.84,44.883,47,47.407,47,49.667z M47.143,28.08c-0.01,0.032-0.016,0.061-0.027,0.093	c-0.188,0.608-0.398,1.216-0.613,1.838c-0.008,0.024-0.017,0.049-0.025,0.073C44.951,29.08,44,27.381,44,25.5	c0-2.205,1.293-4.137,3.239-5.01c0.02,0.06,0.046,0.117,0.065,0.178c0.184,0.595,0.313,1.171,0.382,1.714	c0.001,0.021,0.004,0.041,0.007,0.062c0.003,0.02,0.002,0.041,0.004,0.061C46.672,23.126,46,24.253,46,25.5	C46,26.495,46.426,27.424,47.143,28.08z"/></svg>