<svg xmlns="http://www.w3.org/2000/svg" viewBox="0 0 64 64"><path fill="#fff8ee" d="M18.097,47.348c-1.225,1.1-2.006,2.768-2.006,4.634c0,2.675,1.944,6,4.909,6h8h6.091h8 c2.965,0,4.909-3.325,4.909-6c0-1.866-0.781-3.533-2.006-4.634L45.37,43.14c-0.294-2.625-0.974-5.058-1.958-7.185 c-0.233-0.505-0.482-0.995-0.747-1.464l-21.223-0.508c-0.375,0.619-0.725,1.281-1.044,1.973c-0.961,2.078-1.633,4.45-1.937,7.007 L18.097,47.348z"/><path fill="#fff8ee" d="M20.647,7.793c-0.009-0.009,0-0.009,0-0.009C20.052,7.302,19.285,7,18.449,7 C16.543,7,15,8.543,15,10.449c0,0.923,0.371,1.767,0.957,2.388L20,11L20.647,7.793z"/><path fill="#fff8ee" d="M43,7.793c0.009-0.009,0-0.009,0-0.009C43.595,7.302,44.362,7,45.199,7 c1.905,0,3.449,1.543,3.449,3.449c0,0.923-0.371,1.767-0.957,2.388L43.647,11L43,7.793z"/><path fill="#f7a1c8" d="M22,34c0.433,1.978,1.453,3.829,3.3,5.5c5.756-0.56,12.109-2.712,18.7-5.5H22z"/><path fill="#fff8ee" d="M50,22.064c0-1.728-1.008-3.221-2.474-3.951c0.446-0.687,0.707-1.501,0.707-2.376	c0-2.446-2.015-4.429-4.5-4.429c-0.068,0-0.133,0.007-0.2,0.01c0.024-0.211,0.039-0.425,0.039-0.643c0-3.145-2.59-5.694-5.786-5.694	C34.59,4.982,32,7.531,32,10.676c0-3.145-2.59-5.694-5.786-5.694s-5.786,2.549-5.786,5.694c0,0.218,0.015,0.431,0.039,0.643	c-0.067-0.003-0.132-0.01-0.2-0.01c-2.485,0-4.5,1.983-4.5,4.429c0,0.875,0.262,1.689,0.706,2.376	C15.008,18.843,14,20.336,14,22.064c0,1.732,1.013,3.228,2.485,3.956c-0.742,0.79-1.2,1.842-1.2,3.003	c0,2.446,1.798,5.041,6.156,4.959c7.99,0.018,14.923,0.018,20.871,0c4.725,0.018,6.402-2.513,6.402-4.959	c0-1.16-0.457-2.214-1.2-3.003C48.987,25.292,50,23.796,50,22.064z"/><path fill="#8d6c9f" d="M26.545,20.437c-0.323,0-0.641-0.156-0.833-0.445c-0.307-0.459-0.182-1.081,0.277-1.387l2.183-1.455 c0.46-0.307,1.08-0.183,1.387,0.277c0.307,0.459,0.182,1.081-0.277,1.387l-2.183,1.455C26.928,20.383,26.735,20.437,26.545,20.437z"/><path fill="#8d6c9f" d="M37.455,20.437c-0.19,0-0.383-0.054-0.554-0.168l-2.183-1.455c-0.459-0.306-0.584-0.927-0.277-1.387 c0.306-0.46,0.925-0.584,1.387-0.277l2.183,1.455c0.459,0.306,0.584,0.927,0.277,1.387C38.096,20.281,37.778,20.437,37.455,20.437z"/><path fill="#8d6c9f" d="M35.273,26.509c-0.553,0-1,0.448-1,1c0,0.46-0.688,0.474-0.695,0.474	c-0.183,0-0.353-0.049-0.452-0.132C33.088,27.819,33,27.747,33,27.509v-1.461c0.589-0.358,1-0.975,1-1.519	c0-1.091-1.506-1.091-2-1.091s-2,0-2,1.091c0,0.543,0.411,1.161,1,1.519v1.461c0,0.238-0.088,0.311-0.126,0.341	c-0.1,0.083-0.27,0.132-0.452,0.132c-0.007,0-0.695-0.013-0.695-0.474c0-0.552-0.447-1-1-1s-1,0.448-1,1	c0,1.41,1.158,2.474,2.695,2.474c0.587,0,1.137-0.178,1.578-0.489c0.441,0.312,0.991,0.489,1.578,0.489	c1.537,0,2.695-1.063,2.695-2.474C36.273,26.957,35.826,26.509,35.273,26.509z"/><path fill="#faefde" d="M25.982,45.232c-0.631,0-1.216,0.177-1.734,0.462c-0.48-2.133-2.1-3.712-4.044-3.712	c-2.321,0-4.203,2.239-4.203,5s1.882,5,4.203,5c0.995,0,1.897-0.428,2.616-1.116c0.638,1.111,1.808,1.866,3.162,1.866	c2.031,0,3.677-1.679,3.677-3.75C29.659,46.911,28.013,45.232,25.982,45.232z"/><path fill="#faefde" d="M38.018,45.232c0.631,0,1.216,0.177,1.734,0.462c0.48-2.133,2.1-3.712,4.044-3.712	c2.321,0,4.203,2.239,4.203,5s-1.882,5-4.203,5c-0.995,0-1.897-0.428-2.616-1.116c-0.638,1.111-1.808,1.866-3.162,1.866	c-2.031,0-3.677-1.679-3.677-3.75C34.341,46.911,35.987,45.232,38.018,45.232z"/><circle cx="29" cy="49.994" r="2.67" fill="#d3a9b0"/><circle cx="35" cy="49.994" r="2.67" fill="#d3a9b0"/><circle cx="29" cy="21.982" r="1" fill="#8d6c9f"/><circle cx="35" cy="21.982" r="1" fill="#8d6c9f"/><ellipse cx="47.038" cy="37.02" fill="#f7a1c8" rx="2.121" ry="4.472" transform="rotate(-45.001 47.038 37.02)"/><circle cx="28.5" cy="55.5" r="3.5" fill="#d3a9b0"/><circle cx="35.5" cy="55.5" r="3.5" fill="#d3a9b0"/><path fill="#8d6c9f" d="M49.245,34.813c-0.524-0.523-1.126-0.934-1.77-1.254c0.223-0.166,0.437-0.341,0.633-0.536	c1.036-1.032,1.606-2.453,1.606-4c0-0.972-0.264-1.915-0.756-2.74C50.239,25.266,51,23.732,51,22.064	c0-1.719-0.809-3.297-2.163-4.313c0.261-0.638,0.396-1.321,0.396-2.014c0-0.784-0.185-1.521-0.49-2.195	c0.008-0.008,0.02-0.011,0.028-0.019C49.563,12.684,50,11.591,50,10.449C50,7.996,48.005,6,45.552,6	c-0.825,0-1.633,0.243-2.337,0.674c-1.239-1.631-3.209-2.691-5.429-2.691c-2.444,0-4.592,1.281-5.786,3.199	c-1.194-1.918-3.342-3.199-5.786-3.199c-2.22,0-4.19,1.06-5.429,2.691C20.081,6.243,19.274,6,18.448,6C15.995,6,14,7.996,14,10.449	c0,1.143,0.437,2.235,1.229,3.075c0.008,0.009,0.019,0.011,0.028,0.019c-0.304,0.674-0.49,1.411-0.49,2.195	c0,0.693,0.135,1.376,0.396,2.014C13.809,18.767,13,20.345,13,22.064c0,1.668,0.761,3.202,2.042,4.219	c-0.492,0.826-0.756,1.768-0.756,2.74c0,1.568,0.6,3.02,1.688,4.088c0.716,0.704,1.929,1.506,3.855,1.774	c-0.111,0.219-0.234,0.423-0.338,0.649c-0.888,1.916-1.498,4.015-1.855,6.235C16.064,42.804,15,44.751,15,46.982	c0,0.924,0.188,1.797,0.513,2.58c-0.265,0.766-0.422,1.579-0.422,2.42c0,3.311,2.427,7,5.909,7h4.685	C26.458,59.609,27.43,60,28.5,60c1.421,0,2.675-0.675,3.5-1.706C32.825,59.325,34.079,60,35.5,60c1.07,0,2.042-0.391,2.815-1.018	h4.776c3.482,0,5.909-3.689,5.909-7c0-0.886-0.169-1.741-0.461-2.543C48.833,48.688,49,47.858,49,46.982	c0-2.327-1.157-4.344-2.841-5.339c-0.094-0.536-0.201-1.065-0.322-1.588c1.113,0.751,2.423,1.156,3.779,1.156	c0.227,0,0.455-0.011,0.684-0.034c0.474-0.047,0.849-0.422,0.896-0.896C51.398,38.249,50.688,36.255,49.245,34.813z M45.552,8	C46.901,8,48,9.099,48,10.449c0,0.506-0.164,0.992-0.455,1.408c-0.802-0.768-1.826-1.312-2.981-1.486	c-0.031-0.679-0.167-1.331-0.389-1.942C44.585,8.155,45.063,8,45.552,8z M18.448,8c0.489,0,0.967,0.155,1.376,0.428	c-0.222,0.612-0.357,1.264-0.389,1.942c-1.155,0.174-2.179,0.718-2.981,1.486C16.164,11.441,16,10.955,16,10.449	C16,9.099,17.099,8,18.448,8z M17.375,31.684c-0.702-0.689-1.089-1.634-1.089-2.661c0-0.858,0.329-1.682,0.928-2.318	c0.217-0.231,0.312-0.551,0.256-0.863c-0.057-0.312-0.257-0.578-0.541-0.719C15.739,24.535,15,23.363,15,22.064	c0-1.295,0.736-2.466,1.92-3.056c0.256-0.127,0.444-0.356,0.52-0.631s0.029-0.568-0.126-0.808c-0.357-0.551-0.546-1.185-0.546-1.832	c0-1.891,1.57-3.429,3.5-3.429l0.156,0.009C20.72,12.328,21,12.215,21.199,12c0.2-0.214,0.296-0.505,0.262-0.796	c-0.02-0.174-0.032-0.349-0.032-0.528c0-2.588,2.146-4.694,4.785-4.694S31,8.088,31,10.676c0,0.552,0.447,1,1,1s1-0.448,1-1	c0-2.588,2.147-4.694,4.786-4.694s4.785,2.105,4.785,4.694c0,0.179-0.013,0.354-0.032,0.528c-0.034,0.291,0.062,0.582,0.262,0.796	c0.199,0.214,0.481,0.319,0.775,0.317c0.009,0,0.148-0.009,0.156-0.009c1.93,0,3.5,1.538,3.5,3.429c0,0.647-0.188,1.28-0.546,1.832	c-0.155,0.239-0.201,0.533-0.126,0.808s0.264,0.504,0.52,0.631c1.184,0.59,1.92,1.761,1.92,3.056c0,1.299-0.739,2.471-1.929,3.06	c-0.284,0.141-0.484,0.407-0.541,0.719c-0.056,0.312,0.039,0.632,0.256,0.863c0.599,0.636,0.928,1.459,0.928,2.318	c0,0.716-0.177,1.745-1.019,2.583c-0.91,0.907-2.429,1.39-4.386,1.376C36.364,33,29.434,33,21.423,32.982	C19.679,33.03,18.273,32.566,17.375,31.684z M39.936,34.988c-5.963,2.854-13.555,4.524-14.757,3.894	c-0.738-0.461-1.6-1.886-2.391-3.898c3.485,0.007,6.776,0.011,9.853,0.011C35.214,34.996,37.642,34.993,39.936,34.988z M24.271,56.982H21c-2.422,0-3.909-2.912-3.909-5c0-0.065,0.009-0.129,0.011-0.193c0.867,0.746,1.938,1.193,3.101,1.193	c0.856,0,1.681-0.242,2.428-0.707c0.52,0.547,1.168,0.936,1.87,1.177C24.182,54.066,24,54.761,24,55.5	C24,56.022,24.107,56.516,24.271,56.982z M23.687,50.369c-0.153-0.266-0.42-0.448-0.724-0.492c-0.048-0.007-0.096-0.01-0.144-0.01	c-0.255,0-0.503,0.098-0.69,0.277c-0.401,0.383-1.061,0.839-1.926,0.839c-1.767,0-3.203-1.794-3.203-4s1.437-4,3.203-4	c1.419,0,2.681,1.206,3.068,2.932c0.069,0.307,0.278,0.563,0.565,0.692c0.288,0.13,0.618,0.116,0.893-0.036	c0.407-0.225,0.829-0.338,1.252-0.338c0.538,0,1.028,0.176,1.445,0.459c-1.236,0.591-2.097,1.844-2.097,3.302	c0,0.623,0.17,1.2,0.448,1.711C24.914,51.636,24.141,51.159,23.687,50.369z M29,48.323c0.921,0,1.671,0.75,1.671,1.67	c0,0.525-0.249,0.989-0.63,1.296C29.558,51.112,29.044,51,28.5,51c-0.261,0-0.513,0.034-0.761,0.077	c-0.252-0.293-0.41-0.668-0.41-1.083C27.329,49.073,28.079,48.323,29,48.323z M28.5,58c-1.379,0-2.5-1.122-2.5-2.5	s1.121-2.5,2.5-2.5s2.5,1.122,2.5,2.5S29.879,58,28.5,58z M35.5,58c-1.379,0-2.5-1.122-2.5-2.5s1.121-2.5,2.5-2.5s2.5,1.122,2.5,2.5	S36.879,58,35.5,58z M33.329,49.994c0-0.921,0.75-1.67,1.671-1.67s1.671,0.75,1.671,1.67c0,0.415-0.158,0.791-0.41,1.083	C36.013,51.034,35.761,51,35.5,51c-0.544,0-1.058,0.112-1.541,0.289C33.578,50.983,33.329,50.519,33.329,49.994z M43.091,56.982	h-3.362C39.893,56.516,40,56.022,40,55.5c0-0.74-0.182-1.436-0.502-2.05c0.703-0.24,1.351-0.627,1.871-1.174	c0.747,0.465,1.571,0.707,2.428,0.707c1.2,0,2.304-0.476,3.185-1.266C46.986,51.806,47,51.893,47,51.982	C47,54.07,45.513,56.982,43.091,56.982z M43.797,50.982c-0.865,0-1.524-0.456-1.926-0.839c-0.223-0.212-0.529-0.307-0.834-0.267	c-0.304,0.044-0.57,0.226-0.724,0.492c-0.453,0.789-1.224,1.265-2.085,1.336c0.275-0.512,0.443-1.09,0.443-1.711	c0-1.457-0.859-2.707-2.092-3.3c0.417-0.282,0.904-0.462,1.44-0.462c0.423,0,0.845,0.114,1.252,0.338	c0.274,0.152,0.605,0.166,0.893,0.036c0.287-0.129,0.496-0.385,0.565-0.692c0.388-1.726,1.649-2.932,3.068-2.932	c1.767,0,3.203,1.794,3.203,4S45.563,50.982,43.797,50.982z M43.797,40.982c-2.018,0-3.817,1.349-4.67,3.392	c-0.363-0.094-0.733-0.142-1.108-0.142c-1.658,0-3.11,0.884-3.94,2.21c-0.853,0.223-1.585,0.746-2.079,1.448	c-0.495-0.703-1.228-1.227-2.082-1.449c-0.83-1.324-2.28-2.209-3.937-2.209c-0.375,0-0.745,0.047-1.108,0.142	c-0.853-2.043-2.652-3.392-4.67-3.392c-0.131,0-0.26,0.012-0.388,0.023c0.329-1.589,0.802-3.1,1.437-4.501	c0.739,1.701,1.7,3.345,2.865,4.074c0.42,0.264,1.1,0.383,1.967,0.383c3.859,0,11.414-2.373,16.241-4.939	c0.058,0.12,0.124,0.231,0.18,0.353c0.663,1.434,1.151,2.986,1.487,4.619C43.927,40.991,43.863,40.982,43.797,40.982z M46.245,37.813c-0.805-0.805-1.287-1.854-1.382-2.967c1.113,0.094,2.162,0.576,2.968,1.381c0.805,0.805,1.286,1.854,1.381,2.967	C48.099,39.1,47.05,38.618,46.245,37.813z"/></svg>