<svg xmlns="http://www.w3.org/2000/svg" viewBox="0 0 64 64"><path fill="#d3a9b0" d="M9.847,40.711l-0.477,0.396C8.646,41.706,7.775,42,6.911,42c-1.134,0-2.262-0.506-3.035-1.474	c-1.361-1.705-1.11-4.211,0.57-5.597l2.665-2.21"/><path fill="#d3a9b0" d="M56.616,33.109l3.211,2.571c1.774,1.419,2.057,4.005,0.638,5.779C59.653,42.471,58.46,43,57.254,43	c-0.903,0-1.806-0.297-2.567-0.903l-1.033-0.83"/><path fill="#d3a9b0" d="M26.432,49.209l-2.631,4.397C23.287,54.472,22.353,55,21.345,55h-3.389	c-1.84,0-3.206-1.711-2.794-3.511c0.392-1.739,0.873-3.802,1.272-5.398"/><path fill="#d3a9b0" d="M46.74,46.517l1.373,4.789C48.648,53.153,47.247,55,45.313,55h-2.401	c-1.542,0-2.963-0.798-3.754-2.111l-2.171-3.606"/><path fill="#d3a9b0" d="M56.353,32.193C56.353,20.985,45.449,9,32,9S7.647,20.985,7.647,32.193S18.55,49.588,32,49.588	S56.353,43.401,56.353,32.193z"/><circle cx="24.558" cy="26.588" r="3.382" fill="#8d6c9f"/><circle cx="39.441" cy="26.588" r="3.382" fill="#8d6c9f"/><path fill="#c4939c" d="M18.343,32.718l28.75,1.438c0,0-0.718,3.593-2.875,5.031c-4.011,2.675-20.484,1.438-23-0.718	C18.702,36.313,18.343,32.718,18.343,32.718z"/><path fill="#fff8ee" d="M27.687,33.438v1.657c0,0.703,0.508,1.302,1.201,1.418l5.75,0.959	c0.876,0.146,1.674-0.53,1.674-1.418v-2.256"/><path fill="#8d6c9f" d="M42,22h-5c-0.552,0-1-0.448-1-1s0.448-1,1-1h5c0.552,0,1,0.448,1,1S42.552,22,42,22z"/><path fill="#8d6c9f" d="M29.831,20.221l-6.257-5.005c-0.673-0.538-1.659-0.427-2.2,0.245c-0.537,0.673-0.428,1.659,0.245,2.2	l6.257,5.005c0.276,0.221,0.623,0.342,0.977,0.342c0.477,0,0.923-0.213,1.223-0.587C30.613,21.747,30.503,20.761,29.831,20.221z"/><path fill="#8d6c9f" d="M47.882,33.542c-0.179-0.229-0.449-0.37-0.739-0.384l-28.75-1.438	c-0.296-0.018-0.574,0.098-0.774,0.309s-0.299,0.499-0.271,0.789c0.016,0.163,0.431,4.021,3.219,6.41	c1.755,1.504,8.219,2.488,14.158,2.488c4.268,0,8.265-0.508,10.047-1.696c2.473-1.648,3.268-5.504,3.301-5.667	C48.131,34.067,48.061,33.771,47.882,33.542z M28.687,34.237l6.625,0.331v1.485c0,0.176-0.097,0.285-0.155,0.334	s-0.184,0.126-0.354,0.098l-5.75-0.958c-0.212-0.036-0.366-0.217-0.366-0.432V34.237z M43.664,38.355	c-3.656,2.437-19.704,1.146-21.795-0.646c-1.344-1.151-1.993-2.818-2.292-3.928l7.111,0.355v0.958c0,1.196,0.857,2.208,2.037,2.404	l5.75,0.958c0.134,0.022,0.269,0.033,0.402,0.033c0.572,0,1.129-0.202,1.574-0.578c0.548-0.464,0.862-1.142,0.862-1.86v-1.385	l8.479,0.424C45.405,36.204,44.704,37.661,43.664,38.355z"/><path fill="#8d6c9f" d="M60.453,34.899l-3.106-2.487c0.001-0.073,0.006-0.145,0.006-0.219C57.353,20.773,46.51,8,32,8 C17.634,8,6.87,20.519,6.657,31.85c-0.062,0.032-0.128,0.052-0.183,0.098L3.81,34.157c-2.093,1.728-2.414,4.864-0.715,6.993 C4.032,42.326,5.423,43,6.911,43c1.088,0,2.15-0.382,3.009-1.064c1.392,1.806,3.196,3.373,5.361,4.657 c-0.359,1.472-0.758,3.184-1.094,4.672c-0.265,1.156,0.006,2.35,0.745,3.277C15.67,55.469,16.772,56,17.956,56h3.389 c1.355,0,2.625-0.722,3.313-1.88l2.29-3.827c1.613,0.192,3.297,0.295,5.051,0.295c1.543,0,3.032-0.08,4.466-0.23l1.835,3.047 c0.965,1.6,2.732,2.594,4.611,2.594h2.401c1.244,0,2.386-0.57,3.133-1.563c0.741-0.986,0.97-2.228,0.629-3.406l-1.145-3.994 c2.272-1.229,4.184-2.751,5.68-4.523l0.455,0.365c0.92,0.733,2.023,1.121,3.19,1.121c1.56,0,3.015-0.698,3.992-1.917 C63.008,39.882,62.652,36.659,60.453,34.899z M8.73,40.337c-1.208,1.001-3.092,0.796-4.073-0.435 c-1.022-1.281-0.831-3.166,0.427-4.205l1.692-1.403c0.269,2.171,0.962,4.175,2.024,5.984L8.73,40.337z M22.941,53.096 C22.61,53.653,21.998,54,21.345,54h-3.389c-0.571,0-1.103-0.256-1.459-0.704c-0.357-0.448-0.488-1.025-0.359-1.587 c0.296-1.311,0.642-2.805,0.965-4.145c2.267,1.089,4.853,1.903,7.706,2.411L22.941,53.096z M47.153,51.584 c0.165,0.571,0.053,1.172-0.306,1.65C46.481,53.721,45.922,54,45.313,54h-2.401c-1.2,0-2.284-0.608-2.898-1.626l-1.384-2.299 c2.746-0.445,5.25-1.173,7.475-2.149L47.153,51.584z M32,48.588c-11.624,0-23.353-5.069-23.353-16.395C8.646,21.93,18.848,10,32,10 s23.353,11.93,23.353,22.193C55.353,43.519,43.624,48.588,32,48.588z M59.686,40.833c-1.039,1.296-3.063,1.528-4.373,0.485 l-0.508-0.408c1.193-1.828,1.99-3.872,2.339-6.097l2.059,1.648C60.541,37.532,60.757,39.493,59.686,40.833z"/><path fill="#8d6c9f" d="M12.957,34.755c-0.136-0.535-0.677-0.86-1.216-0.721c-0.535,0.137-0.858,0.681-0.721,1.216 c0.135,0.529,0.309,1.051,0.515,1.549c0.16,0.385,0.532,0.618,0.924,0.618c0.127,0,0.257-0.025,0.382-0.077 c0.51-0.211,0.752-0.796,0.541-1.307C13.212,35.623,13.069,35.193,12.957,34.755z"/><path fill="#8d6c9f" d="M14.269,21.612c-2.012,2.879-3.239,6.024-3.547,9.096c-0.055,0.549,0.346,1.04,0.896,1.095 c0.034,0.003,0.067,0.005,0.101,0.005c0.508,0,0.942-0.385,0.994-0.9c0.274-2.731,1.379-5.55,3.196-8.149 c0.316-0.453,0.206-1.076-0.247-1.393C15.209,21.051,14.586,21.16,14.269,21.612z"/></svg>