<svg xmlns="http://www.w3.org/2000/svg" viewBox="0 0 64 64"><path fill="#b5c4e0" d="M45.544,46.69c-0.346-1.276-0.848-2.569-1.417-3.747c-0.939-1.993-2.051-3.689-2.849-4.562H20.76	c-0.799,0.873-1.911,2.569-2.849,4.562c-0.568,1.178-1.071,2.471-1.416,3.747C16.181,47.801,16,48.897,16,49.926	c0,1.647,1.384,3.294,3.088,3.294c0.453,0,0.881-0.099,1.268-0.28h1.886c-0.192,0.645-0.301,1.343-0.301,2.075	c0,1.244,0.306,2.394,0.823,3.339C22.981,58.751,23.397,59,23.85,59h5.241c0.453,0,0.869-0.249,1.086-0.646	C30.694,57.408,31,56.258,31,55.015c0-0.732-0.109-1.429-0.301-2.075h0.592c-0.187,0.654-0.288,1.361-0.278,2.102	c0.018,1.244,0.34,2.389,0.87,3.327c0.223,0.394,0.642,0.637,1.095,0.631l5.24-0.073c0.453-0.006,0.865-0.261,1.077-0.662	c0.504-0.952,0.793-2.107,0.775-3.35c-0.01-0.696-0.119-1.359-0.302-1.975h1.912c0.387,0.181,0.815,0.28,1.268,0.28	c1.705,0,3.088-1.647,3.088-3.294C46.038,48.897,45.857,47.801,45.544,46.69z"/><path fill="#efc88e" d="M26.47,49.076C26.174,48.664,26,48.159,26,47.614c0-1.387,1.124-2.511,2.511-2.511	c1.387,0,2.511,1.124,2.511,2.511c0,1.151-0.774,2.121-1.83,2.418"/><circle cx="35.887" cy="43.108" r="2.005" fill="#efc88e"/><path fill="#f283a5" d="M31.143,42C27,42,10,33.03,10,21.818c0-10.091,7.714-11.773,10.286-11.773S27,11.026,30.571,15.091	C31.857,12.288,36.143,5,43.143,5S54,11.307,54,17.333C54,31.348,35.143,42,31.143,42z"/><path fill="#8d6c9f" d="M45.032,42.516c-0.886-1.879-2.005-3.673-2.944-4.726C48.469,33.148,55,25.795,55,17.333	C55,10.869,50.845,4,43.143,4c-6.889,0-11.164,6.323-12.825,9.374c-4.005-3.883-8.283-4.329-10.031-4.329	C16.383,9.045,9,11.715,9,21.818c0,6.531,5.302,12.259,10.833,16.108c-0.914,1.068-1.977,2.787-2.824,4.583	c-0.625,1.298-1.137,2.653-1.478,3.91C15.179,47.674,15,48.854,15,49.926c0,2.288,1.91,4.295,4.088,4.295	c0.439,0,0.859-0.093,1.268-0.23c0.006,0.037,0.008,0.076,0.014,0.113c0.16,0.972,1.238,4.221,1.517,4.73	C22.28,59.554,23.033,60,23.851,60h5.24c0.799,0,1.532-0.431,1.933-1.124C31.425,59.571,32.162,60,32.963,60h0.029l5.241-0.073	c0.001,0,0.001,0,0.001,0c0.817-0.013,1.563-0.471,1.945-1.194c0.247-0.467,1.328-3.657,1.487-4.622	c0.007-0.039,0.009-0.08,0.015-0.12c0.408,0.137,0.829,0.23,1.268,0.23c2.178,0,4.088-2.007,4.088-4.295	c0-1.072-0.179-2.252-0.529-3.498C46.166,45.162,45.654,43.807,45.032,42.516z M11,21.818c0-10.651,8.907-10.773,9.286-10.773	c1.623,0,5.802,0.459,9.534,4.706c0.224,0.254,0.562,0.375,0.896,0.329c0.336-0.049,0.623-0.265,0.765-0.572	C32.209,13.92,36.195,6,43.143,6C49.545,6,53,11.839,53,17.333C53,30.902,34.653,41,31.143,41C27.317,41,11,32.149,11,21.818z M36.893,43.107c0,0.555-0.451,1.006-1.005,1.006s-1.005-0.451-1.005-1.006c0-0.554,0.451-1.005,1.005-1.005	S36.893,42.554,36.893,43.107z M29.301,57.873C29.258,57.951,29.178,58,29.091,58h-5.24c-0.087,0-0.167-0.049-0.209-0.126	c-0.458-0.838-0.7-1.826-0.7-2.859c0-2.66,1.583-4.824,3.529-4.824S30,52.354,30,55.015C30,56.048,29.758,57.036,29.301,57.873z M27,47.613c0-0.833,0.678-1.511,1.511-1.511c0.834,0,1.512,0.678,1.512,1.511c0,0.617-0.389,1.155-0.949,1.384	c-0.584-0.386-1.23-0.642-1.914-0.748C27.065,48.05,27,47.838,27,47.613z M38.205,57.927L32.966,58	c-0.069,0.02-0.167-0.046-0.211-0.123c-0.471-0.832-0.727-1.817-0.741-2.85c-0.02-1.334,0.359-2.584,1.065-3.52	c0.649-0.86,1.5-1.341,2.395-1.354h0.037c1.929,0,3.522,2.132,3.561,4.774c0.015,1.034-0.213,2.025-0.66,2.869	C38.369,57.877,38.292,57.926,38.205,57.927z M42.95,52.221c-0.296,0-0.581-0.063-0.846-0.187c-0.072-0.033-0.147-0.037-0.221-0.053	c0.014-0.283,0.036-0.566,0.036-0.849c0-1.765-0.252-3.485-0.747-5.112c-0.161-0.528-0.717-0.825-1.248-0.666	c-0.528,0.161-0.826,0.72-0.666,1.248c0.411,1.35,0.625,2.776,0.651,4.241c-1.021-1.632-2.615-2.688-4.4-2.688h-0.063	c-1.525,0.021-2.934,0.784-3.963,2.148c-0.186,0.247-0.34,0.52-0.493,0.794c-0.129-0.227-0.271-0.441-0.422-0.647	c0.889-0.648,1.454-1.693,1.454-2.837c0-1.936-1.575-3.511-3.512-3.511c-1.936,0-3.511,1.575-3.511,3.511	c0,0.272,0.041,0.538,0.102,0.798c-1.194,0.377-2.232,1.231-2.973,2.392c0.029-1.452,0.242-2.864,0.649-4.2	c0.162-0.528-0.136-1.087-0.664-1.248c-0.53-0.164-1.088,0.137-1.248,0.664c-0.497,1.627-0.749,3.347-0.749,5.113	c0,0.284,0.022,0.566,0.036,0.849c-0.074,0.015-0.148,0.02-0.22,0.053c-0.265,0.124-0.55,0.187-0.846,0.187	c-1.176,0-2.088-1.233-2.088-2.295c0-0.889,0.153-1.887,0.459-2.975c0.312-1.149,0.779-2.385,1.355-3.582	c0.991-2.104,2.065-3.639,2.683-4.314c0.006-0.006,0.007-0.014,0.012-0.021C25.511,41.538,29.364,43,31.143,43	c0.469,0,1.076-0.109,1.783-0.314c-0.02,0.139-0.043,0.277-0.043,0.421c0,1.657,1.348,3.006,3.005,3.006s3.005-1.349,3.005-3.006	c0-1.019-0.512-1.918-1.29-2.461c0.919-0.503,1.878-1.081,2.856-1.727c0.029,0.045,0.045,0.095,0.082,0.136	c0.617,0.676,1.691,2.211,2.686,4.321c0.573,1.19,1.041,2.426,1.354,3.584c0.304,1.079,0.457,2.077,0.457,2.966	C45.038,50.987,44.126,52.221,42.95,52.221z"/><ellipse cx="30.922" cy="32.979" fill="#efc88e" rx="6.016" ry="4.021"/><path fill="#8d6c9f" d="M30.922,38c-3.934,0-7.016-2.205-7.016-5.021s3.082-5.021,7.016-5.021s7.016,2.206,7.016,5.021	S34.855,38,30.922,38z M30.922,29.958c-2.719,0-5.016,1.384-5.016,3.021S28.203,36,30.922,36s5.016-1.383,5.016-3.021	S33.641,29.958,30.922,29.958z"/><path fill="#8d6c9f" d="M32,34h-2c-0.553,0-1-0.447-1-1s0.447-1,1-1h2c0.553,0,1,0.447,1,1S32.553,34,32,34z"/><path fill="#8d6c9f" d="M28.429,23h-2c-0.553,0-1-0.447-1-1s0.447-1,1-1h2c0.553,0,1,0.447,1,1S28.981,23,28.429,23z"/><circle cx="27.5" cy="25.514" r="1.5" fill="#8d6c9f"/><circle cx="34.548" cy="25.486" r="1.528" fill="#8d6c9f"/><path fill="#8d6c9f" d="M35.449,23h-2c-0.553,0-1-0.447-1-1s0.447-1,1-1h2c0.553,0,1,0.447,1,1S36.002,23,35.449,23z"/><path fill="#8d6c9f" d="M47.962,25.354c-0.172,0-0.347-0.044-0.506-0.138l-1.725-1.013 c-0.476-0.279-0.635-0.893-0.355-1.369c0.28-0.475,0.893-0.636,1.369-0.355l1.725,1.013c0.476,0.279,0.635,0.893,0.355,1.369 C48.639,25.178,48.305,25.354,47.962,25.354z"/><path fill="#8d6c9f" d="M49.815,20.533c-0.059,0-0.117-0.005-0.177-0.016l-1.969-0.352 c-0.544-0.097-0.905-0.616-0.809-1.16s0.617-0.908,1.16-0.809l1.969,0.352c0.544,0.097,0.905,0.616,0.809,1.16 C50.713,20.193,50.291,20.533,49.815,20.533z"/><path fill="#8d6c9f" d="M47.552,15.909c-0.416,0-0.804-0.261-0.946-0.676c-0.179-0.522,0.1-1.091,0.622-1.271l1.893-0.648 c0.523-0.177,1.091,0.1,1.271,0.622c0.179,0.522-0.1,1.091-0.622,1.271l-1.893,0.648C47.769,15.892,47.659,15.909,47.552,15.909z"/><path fill="#8d6c9f" d="M45.113,12.734c-0.162,0-0.326-0.039-0.478-0.122c-0.485-0.265-0.664-0.872-0.399-1.356 L45.194,9.5c0.265-0.485,0.875-0.664,1.356-0.399c0.485,0.265,0.664,0.872,0.399,1.356l-0.958,1.756 C45.811,12.546,45.468,12.734,45.113,12.734z"/><path fill="#8d6c9f" d="M41.308,12.584c-0.392,0-0.764-0.231-0.924-0.616l-0.768-1.847c-0.212-0.51,0.03-1.096,0.54-1.308 c0.508-0.211,1.096,0.03,1.308,0.54l0.768,1.847c0.212,0.51-0.03,1.096-0.54,1.308C41.566,12.56,41.436,12.584,41.308,12.584z"/><path fill="#8d6c9f" d="M38.019,15.319c-0.216,0-0.433-0.069-0.616-0.213l-1.574-1.233 c-0.435-0.341-0.511-0.969-0.17-1.404c0.341-0.433,0.969-0.511,1.404-0.17l1.574,1.233c0.435,0.341,0.511,0.969,0.17,1.404 C38.609,15.188,38.315,15.319,38.019,15.319z"/></svg>