<svg xmlns="http://www.w3.org/2000/svg" viewBox="0 0 64 64"><path fill="#fff8ee" d="M37,60.155c3.42,0,6-1.505,6-3.5c0-0.53-0.186-1.272-1-1.979v-1.086 c1.505-0.637,2.708-1.88,3.43-3.571c0.8-1.876,0.912-4.093,0.314-6.241c-0.491-1.763-1.432-3.334-2.665-4.494 C47.866,36.567,51,32.154,51,27.166c0-6.385-5.096-12.012-12.724-14.104L32.85,4.318C32.667,4.024,32.334,3.877,32,3.877v54.765 C33.057,59.568,34.864,60.155,37,60.155z"/><path fill="#acb7d0" d="M32,3.877c-0.334,0-0.667,0.147-0.85,0.441l-5.426,8.743C18.096,15.153,13,20.78,13,27.166 c0,4.807,2.912,9.08,7.408,11.816c-1.403,1.182-2.482,2.87-3.018,4.796c-0.598,2.147-0.487,4.364,0.314,6.241 c0.833,1.954,2.307,3.313,4.15,3.825c0.049,0.014,0.097,0.014,0.146,0.02v0.812c-0.814,0.708-1,1.45-1,1.979 c0,1.995,2.58,3.5,6,3.5c2.136,0,3.943-0.587,5-1.513V3.877z"/><path fill="#8d6c9f" d="M37,36H27c-0.552,0-1-0.448-1-1s0.448-1,1-1h10c0.552,0,1,0.448,1,1S37.552,36,37,36z"/><path fill="#8d6c9f" d="M26.414,29l1.293-1.293c0.391-0.391,0.391-1.023,0-1.414s-1.023-0.391-1.414,0L25,27.586	l-1.293-1.293c-0.391-0.391-1.023-0.391-1.414,0s-0.391,1.023,0,1.414L23.586,29l-1.293,1.293c-0.391,0.391-0.391,1.023,0,1.414	C22.488,31.902,22.744,32,23,32s0.512-0.098,0.707-0.293L25,30.414l1.293,1.293C26.488,31.902,26.744,32,27,32	s0.512-0.098,0.707-0.293c0.391-0.391,0.391-1.023,0-1.414L26.414,29z"/><path fill="#8d6c9f" d="M40,32c-1.654,0-3-1.346-3-3s1.346-3,3-3s3,1.346,3,3S41.654,32,40,32z M40,28c-0.551,0-1,0.449-1,1 s0.449,1,1,1s1-0.449,1-1S40.551,28,40,28z"/><path fill="#8d6c9f" d="M51,27.166c0-6.385-5.096-12.012-12.724-14.104L32.85,4.318c-0.364-0.588-1.335-0.588-1.699,0	l-5.426,8.743C18.096,15.153,13,20.78,13,27.166c0,4.808,2.916,9.077,7.415,11.81c-1.407,1.182-2.487,2.872-3.024,4.801	c-0.598,2.147-0.487,4.364,0.314,6.241c0.833,1.954,2.307,3.313,4.15,3.825c0.049,0.014,0.097,0.014,0.146,0.02v0.812	c-0.814,0.708-1,1.45-1,1.979c0,1.995,2.58,3.5,6,3.5c2.136,0,3.943-0.587,5-1.513c1.057,0.926,2.864,1.513,5,1.513	c3.42,0,6-1.505,6-3.5c0-0.53-0.186-1.272-1-1.979v-1.086c1.505-0.637,2.708-1.88,3.43-3.571c0.8-1.876,0.912-4.093,0.314-6.241	c-0.491-1.763-1.432-3.334-2.665-4.494C47.866,36.567,51,32.154,51,27.166z M19.544,49.233c-0.624-1.46-0.704-3.208-0.227-4.92	c0.468-1.683,1.436-3.128,2.683-4.048v11.516C20.935,51.357,20.071,50.469,19.544,49.233z M37,58.155c-2.481,0-4-0.971-4-1.5v-3.5	c0-0.552-0.448-1-1-1s-1,0.448-1,1v3.5c0,0.529-1.519,1.5-4,1.5s-4-0.971-4-1.5c0-0.136,0.146-0.38,0.558-0.656	C23.834,55.813,24,55.501,24,55.168V40.704c2.435,0.894,5.14,1.409,8,1.409s5.565-0.514,8-1.409v14.465	c0,0.333,0.166,0.645,0.442,0.83C40.854,56.275,41,56.519,41,56.655C41,57.184,39.481,58.155,37,58.155z M43.817,44.313	c0.477,1.712,0.396,3.459-0.227,4.92c-0.375,0.88-0.922,1.584-1.59,2.07V41.04C42.825,41.917,43.464,43.046,43.817,44.313z M32,40.112c-9.374,0-17-5.808-17-12.947c0-5.565,4.667-10.497,11.612-12.271c0.25-0.064,0.466-0.222,0.602-0.441L32,6.742	l4.786,7.711c0.136,0.219,0.352,0.377,0.602,0.441C44.333,16.669,49,21.601,49,27.166C49,34.304,41.374,40.112,32,40.112z"/><path fill="#8d6c9f" d="M33,16h-2c-0.552,0-1-0.448-1-1s0.448-1,1-1h2c0.552,0,1,0.448,1,1S33.552,16,33,16z"/><path fill="#8d6c9f" d="M33,21h-2c-0.552,0-1-0.448-1-1s0.448-1,1-1h2c0.552,0,1,0.448,1,1S33.552,21,33,21z"/><path fill="#8d6c9f" d="M33,26h-2c-0.552,0-1-0.448-1-1s0.448-1,1-1h2c0.552,0,1,0.448,1,1S33.552,26,33,26z"/><path fill="#8d6c9f" d="M33,31h-2c-0.552,0-1-0.448-1-1s0.448-1,1-1h2c0.552,0,1,0.448,1,1S33.552,31,33,31z"/><g><path fill="#8d6c9f" d="M33,46h-2c-0.552,0-1-0.448-1-1s0.448-1,1-1h2c0.552,0,1,0.448,1,1S33.552,46,33,46z"/><path fill="#8d6c9f" d="M33,51h-2c-0.552,0-1-0.448-1-1s0.448-1,1-1h2c0.552,0,1,0.448,1,1S33.552,51,33,51z"/></g></svg>