<svg xmlns="http://www.w3.org/2000/svg" viewBox="0 0 64 64"><path fill="#8d6c9f" d="M49.663,61.083c-0.054,0-0.109-0.004-0.164-0.014l-1.973-0.327c-0.545-0.09-0.914-0.605-0.823-1.15 c0.09-0.544,0.604-0.918,1.149-0.823l1.973,0.327c0.545,0.09,0.914,0.605,0.823,1.15C50.567,60.735,50.144,61.083,49.663,61.083z"/><path fill="#8d6c9f" d="M50.509,55.982c-0.054,0-0.109-0.004-0.164-0.014l-1.974-0.327c-0.545-0.09-0.914-0.605-0.823-1.15 c0.09-0.544,0.604-0.916,1.149-0.823l1.974,0.327c0.545,0.09,0.914,0.605,0.823,1.15C51.413,55.635,50.989,55.982,50.509,55.982z"/><path fill="#8d6c9f" d="M51.354,50.881c-0.054,0-0.109-0.004-0.165-0.014l-1.973-0.327c-0.544-0.09-0.913-0.605-0.822-1.15 c0.09-0.544,0.594-0.914,1.15-0.823l1.973,0.327c0.544,0.09,0.913,0.605,0.822,1.15C52.258,50.534,51.834,50.881,51.354,50.881z"/><path fill="#8d6c9f" d="M52.198,45.78c-0.054,0-0.109-0.004-0.164-0.014l-1.973-0.327c-0.545-0.09-0.914-0.605-0.823-1.15 c0.09-0.544,0.604-0.917,1.149-0.823l1.973,0.327c0.545,0.09,0.914,0.605,0.823,1.15C53.103,45.433,52.679,45.78,52.198,45.78z"/><path fill="#8d6c9f" d="M53.044,40.679c-0.054,0-0.109-0.004-0.164-0.014l-1.974-0.327c-0.545-0.09-0.914-0.605-0.823-1.15 c0.09-0.544,0.604-0.915,1.149-0.823l1.974,0.327c0.545,0.09,0.914,0.605,0.823,1.15C53.948,40.332,53.524,40.679,53.044,40.679z"/><path fill="#ffeb9b" d="M41,62c-0.5,0-0.926-0.372-0.991-0.87l-2.771-21.166c-0.058-0.443,0.185-0.871,0.595-1.048 c0.128-0.055,0.263-0.082,0.396-0.082c0.126,0,0.251,0.024,0.368,0.07l-1.359-10.63c-0.055-0.424,0.167-0.836,0.551-1.024 c0.14-0.069,0.291-0.103,0.44-0.103c0.26,0,0.516,0.101,0.708,0.293l0.713,0.712l-0.669-9.903 c-0.224-0.018-0.449-0.039-0.679-0.061c-0.568-0.055-1.155-0.111-1.788-0.111c-1.137,0-3.23,0.191-4.395,0.596l-0.116,18.167 l0.948,2.843c0.102,0.305,0.05,0.64-0.138,0.901C32.624,40.846,32.321,41,32,41h-8c-0.321,0-0.623-0.154-0.811-0.416 c-0.188-0.261-0.239-0.596-0.138-0.901L24,36.838V23.67c-0.024,0.014-0.049,0.027-0.073,0.041c-1.592,0.88-3.358,1.856-4.927,2.179 v7.948l0.949,2.846c0.102,0.305,0.05,0.64-0.138,0.901C19.624,37.846,19.321,38,19,38h-8c-0.321,0-0.623-0.154-0.811-0.416 c-0.188-0.261-0.239-0.596-0.138-0.901L11,33.838v-8c-1.801-0.372-2.641-0.919-3.595-1.54L6.974,24.02 c-0.561-0.354-2.266-1.433-2.777-4.148c-0.011-0.061-0.017-0.123-0.017-0.185v-0.13c0-0.421,0.263-0.796,0.659-0.94 c0.389-0.141,0.744-0.283,1.084-0.418c0.896-0.357,1.744-0.694,2.839-0.892c0.059-0.011,0.119-0.016,0.178-0.016 c0.232,0,0.46,0.081,0.641,0.232c0.208,0.174,0.336,0.426,0.356,0.695c0.073,0.465-0.08,0.866-0.454,1.201 c-0.208,0.187-0.49,0.415-0.785,0.653c-0.179,0.144-0.363,0.292-0.536,0.438C8.604,20.73,9.808,20.896,11,20.965V7.162 l-0.949-2.846c-0.102-0.305-0.05-0.64,0.138-0.901C10.377,3.154,10.679,3,11,3h8c0.321,0,0.624,0.154,0.811,0.416 c0.188,0.261,0.239,0.596,0.138,0.901L19,7.162v13.754c1.049-0.198,2.116-0.798,4.729-2.313L24,18.447V6.162l-0.949-2.846 c-0.102-0.305-0.05-0.64,0.138-0.901C23.377,2.154,23.679,2,24,2h8c0.321,0,0.624,0.154,0.811,0.416 c0.188,0.261,0.239,0.596,0.138,0.901L32,6.162v7.492c1.027-0.22,3.601-0.463,5.544-0.463c0.368,0,0.738,0.009,1.108,0.026 l-0.14-2.153c-0.018-0.276,0.08-0.547,0.269-0.749S39.234,10,39.51,10H46c0.552,0,1,0.448,1,1v1.577 c0.133-0.052,0.269-0.104,0.406-0.158c0.703-0.275,1.429-0.56,2.063-0.748c0.22-0.066,0.45-0.1,0.681-0.1 c0.794,0,1.529,0.4,1.967,1.07l0.055,0.083c0.818,1.245,3.311,5.034,4.605,6.632c0.153,0.189,0.232,0.428,0.222,0.671 c-0.028,0.679-0.054,1.476-0.083,2.328c-0.096,2.889-0.215,6.485-0.5,8.304c-0.021,0.132-0.267,1.211-0.267,1.211 c-0.042,0.184-0.134,0.35-0.268,0.483c-1.082,1.082-1.935,1.393-3.211,1.776c-0.839,0.28-2.838,0.677-3.617,0.813 c-0.094,0.017-0.193,0.025-0.291,0.025c-0.467,0-0.929-0.193-1.236-0.516c-0.252-0.294-0.494-0.548-0.738-0.795l0.229,6.793 c0.014,0.417-0.232,0.798-0.617,0.958c-0.124,0.051-0.253,0.076-0.382,0.076c-0.272,0-0.538-0.111-0.731-0.317l-0.503-0.539 l0.286,8.915c0.013,0.41-0.226,0.787-0.602,0.95c-0.128,0.056-0.263,0.083-0.397,0.083c-0.26,0-0.516-0.102-0.707-0.293 l-0.425-0.424l-0.943,11.227c-0.043,0.509-0.462,0.904-0.974,0.916C41.015,62,41.007,62,41,62z M49.497,16.231 c-0.073,0-0.146,0.008-0.219,0.024c-0.493,0.11-1.024,0.236-1.513,0.353C47.314,16.717,47,17.117,47,17.581v10.358 c0,0.38,0.204,0.72,0.532,0.885c0.421,0.212,1.272,0.449,2.023,0.657l0.152,0.042c0.088,0.024,0.179,0.037,0.269,0.037 c0.441,0,0.827-0.288,0.959-0.716c0.487-1.582,0.797-3.685,0.797-4.438c0-2.566-0.627-4.947-1.18-7.047l-0.103-0.391 C50.336,16.534,49.945,16.231,49.497,16.231z"/><polygon fill="#efc88e" points="15,8 15,38 10,38 11,34 12,25 12,8.859 10,3 15,3"/><polygon fill="#f9dd8f" points="10.5,3.5 15,7.5 19.5,3.5"/><polygon fill="#f9dd8f" points="10.5,37.5 15,33.5 19.5,37.5"/><polygon fill="#efc88e" points="28,6 28,37 23,41 24,33 25,24 25,7.859 23,2 28,2"/><polygon fill="#f9dd8f" points="23.5,2.5 28,6.5 32.5,2.5"/><polygon fill="#f9dd8f" points="23.5,40.5 28,36.5 32.5,40.5"/><polygon fill="#efc88e" points="43.478,35.826 41.13,33.5 41.913,45.413 40.348,43.587 41.023,62 39.63,58.261 37.217,39.25 38.326,38.141 37.348,27.576 39.467,26.663 39.917,17.291 39.724,14.297 38.75,10.522 43,10"/><polygon fill="#f9dd8f" points="38.5,10.5 43,14.5 47.5,10.5"/><path fill="#8d6c9f" d="M32,3l-1,3v8.948c0,0,1.688-1.096,4.948-1.096c1.086,0,2.346,0.122,3.776,0.446L39.51,11H46v3 c1.091-0.338,2.618-1.033,3.754-1.371c0.132-0.04,0.265-0.059,0.396-0.059c0.45,0,0.874,0.225,1.13,0.617 c0.786,1.195,3.363,5.123,4.72,6.798c-0.123,2.987-0.214,8.24-0.571,10.519c-0.019,0.123-0.253,1.143-0.253,1.143 c-0.89,0.89-1.519,1.143-2.792,1.526c-0.76,0.253-2.611,0.63-3.501,0.786c-0.04,0.007-0.079,0.01-0.118,0.01 c-0.211,0-0.407-0.096-0.511-0.205C47.474,32.848,46.59,32.143,45.7,31l0.319,9.483L43.7,38l0.371,11.574l-1.948-1.948L41,61 l-2.771-21.166L40,42l-1.771-13.853l2.597,2.597l-0.909-13.453c-1.75-0.577-3.117-0.896-4.351-0.896 c-1.528,0-2.852,0.489-4.445,1.585L31,37l1,3h-8l1-3V22c-2,1-5,3-7,3v9l1,3h-8l1-3v-9c-2.498-0.378-3.224-1.024-4.491-1.825 c-0.716-0.453-1.929-1.359-2.329-3.488v-0.13c1.396-0.506,2.364-1.013,3.76-1.266c0,0.123,0.086,0.196-0.123,0.383 c-0.368,0.33-0.978,0.795-1.461,1.21c-0.424,0.364-0.392,1.028,0.07,1.342c0.054,0.037,0.109,0.074,0.163,0.11 C8.608,21.972,12,22,12,22V7l-1-3h8l-1,3v15c2,0,3-0.663,7-2.977V6l-1-3H32 M49.976,30.56c0.859,0,1.649-0.56,1.914-1.422 c0.515-1.673,0.842-3.884,0.842-4.732c0-2.864-0.746-5.517-1.315-7.691c-0.233-0.891-1.035-1.484-1.92-1.484 c-0.144,0-0.291,0.016-0.437,0.048c-0.499,0.111-1.035,0.238-1.529,0.357C46.632,15.852,46,16.656,46,17.581l0,10.359 c0,0.749,0.413,1.441,1.081,1.777c0.541,0.273,1.501,0.531,2.358,0.77C49.619,30.537,49.799,30.56,49.976,30.56 M32,1h-8 c-0.643,0-1.247,0.309-1.622,0.831s-0.478,1.192-0.275,1.802L23,6.325v11.546c-1.411,0.818-2.315,1.333-3,1.651V7.325l0.897-2.692 c0.203-0.61,0.101-1.28-0.275-1.802S19.643,2,19,2h-8c-0.643,0-1.247,0.309-1.622,0.831S8.899,4.023,9.103,4.632L10,7.325v9.27 c-0.318-0.199-0.686-0.304-1.06-0.304c-0.119,0-0.238,0.011-0.357,0.032c-1.192,0.216-2.125,0.587-3.027,0.946 c-0.332,0.132-0.678,0.27-1.058,0.408c-0.791,0.287-1.318,1.039-1.318,1.88v0.13c0,0.124,0.012,0.248,0.034,0.37 c0.591,3.143,2.574,4.397,3.225,4.809c0.146,0.092,0.284,0.182,0.419,0.27c0.82,0.534,1.66,1.081,3.141,1.489v7.051l-0.897,2.692 c-0.203,0.61-0.101,1.28,0.275,1.802S10.357,39,11,39h8c0.643,0,1.247-0.309,1.622-0.831s0.478-1.192,0.275-1.802L20,33.675v-7.013 c0.996-0.307,2.014-0.79,3-1.309v11.322l-0.897,2.692c-0.203,0.61-0.101,1.28,0.275,1.802S23.357,42,24,42h8 c0.643,0,1.247-0.309,1.622-0.831s0.478-1.192,0.275-1.802l-0.895-2.686l0.112-17.592c0.876-0.487,1.629-0.695,2.452-0.695 c0.666,0,1.433,0.125,2.448,0.405l0.498,7.367c-0.094-0.013-0.189-0.02-0.284-0.02c-0.299,0-0.6,0.067-0.881,0.205 c-0.768,0.377-1.211,1.2-1.103,2.049l1.225,9.583c-0.012,0.005-0.023,0.01-0.034,0.014c-0.82,0.354-1.306,1.21-1.19,2.096 l2.771,21.166c0.131,0.998,0.981,1.74,1.982,1.74c0.016,0,0.031,0,0.047-0.001c1.022-0.024,1.861-0.814,1.947-1.832l0.807-9.612 c0.09,0.012,0.18,0.018,0.271,0.018c0.268,0,0.538-0.054,0.794-0.165c0.753-0.326,1.23-1.079,1.204-1.899l-0.226-7.034 c0.058,0.005,0.116,0.008,0.175,0.008c0.257,0,0.517-0.05,0.764-0.152c0.77-0.319,1.262-1.082,1.234-1.915l-0.155-4.601 c0.288,0.1,0.594,0.154,0.901,0.154c0.158,0,0.317-0.014,0.472-0.042c0.817-0.143,2.806-0.538,3.749-0.847 c1.372-0.414,2.369-0.783,3.604-2.019c0.266-0.266,0.451-0.601,0.535-0.967c0.249-1.087,0.27-1.216,0.279-1.278 c0.295-1.883,0.41-5.363,0.512-8.433c0.028-0.847,0.054-1.639,0.082-2.314c0.02-0.486-0.138-0.963-0.444-1.341 c-1.268-1.565-3.742-5.328-4.555-6.564l-0.048-0.074c-0.62-0.949-1.669-1.518-2.801-1.518c-0.328,0-0.654,0.048-0.97,0.143 c-0.375,0.111-0.774,0.252-1.179,0.404V11c0-1.105-0.895-2-2-2h-6.49c-0.553,0-1.081,0.229-1.459,0.632 c-0.378,0.403-0.572,0.945-0.537,1.497l0.052,0.799c-0.549-0.051-1.089-0.077-1.618-0.077c-1.139,0-2.124,0.118-2.948,0.286V6.325 l0.897-2.692c0.203-0.61,0.101-1.28-0.275-1.802S32.643,1,32,1L32,1z M49.976,28.56l-0.16-0.044 c-0.634-0.176-1.502-0.417-1.835-0.585L48,17.581c0.482-0.116,1.007-0.24,1.497-0.349l0.091,0.386 c0.537,2.041,1.145,4.354,1.145,6.788c0,0.598-0.286,2.626-0.753,4.144L49.976,28.56L49.976,28.56z"/></svg>